<svg width="17" height="18" viewBox="0 0 17 18" fill="none" xmlns="http://www.w3.org/2000/svg">
<path d="M1.13393 9.97933L0.273934 9.11933C0.18728 9.03326 0.118509 8.9309 0.0715787 8.81814C0.024649 8.70539 0.000488281 8.58446 0.000488281 8.46233C0.000488281 8.34019 0.024649 8.21927 0.0715787 8.10651C0.118509 7.99375 0.18728 7.89139 0.273934 7.80533L7.80293 0.272326C7.889 0.185671 7.99136 0.116901 8.10412 0.0699711C8.21687 0.0230408 8.3378 -0.00111961 8.45993 -0.00111961C8.58207 -0.00111961 8.70299 0.0230408 8.81575 0.0699711C8.92851 0.116901 9.03087 0.185671 9.11693 0.272326L16.6529 7.80633C16.7396 7.89239 16.8084 7.99475 16.8553 8.10751C16.9022 8.22027 16.9264 8.34119 16.9264 8.46333C16.9264 8.58546 16.9022 8.70639 16.8553 8.81914C16.8084 8.9319 16.7396 9.03426 16.6529 9.12033L15.7929 9.98033C15.7049 10.0682 15.6002 10.1375 15.485 10.1842C15.3697 10.231 15.2463 10.2541 15.1219 10.2523C14.9976 10.2506 14.8748 10.2239 14.761 10.1739C14.6471 10.1239 14.5444 10.0517 14.4589 9.96133L10.0109 5.29233V16.4313C10.0112 16.5535 9.98732 16.6746 9.94068 16.7875C9.89404 16.9005 9.82554 17.0031 9.73913 17.0895C9.65272 17.1759 9.55009 17.2444 9.43714 17.2911C9.32419 17.3377 9.20314 17.3616 9.08093 17.3613H7.84093C7.71873 17.3616 7.59768 17.3377 7.48473 17.2911C7.37178 17.2444 7.26915 17.1759 7.18274 17.0895C7.09633 17.0031 7.02783 16.9005 6.98119 16.7875C6.93455 16.6746 6.91067 16.5535 6.91093 16.4313L6.91093 5.29533L2.46293 9.96133C2.37798 10.0517 2.2757 10.124 2.16219 10.174C2.04868 10.224 1.92627 10.2506 1.80225 10.2523C1.67824 10.254 1.55515 10.2307 1.44033 10.1838C1.32551 10.1369 1.22131 10.0674 1.13393 9.97933Z" fill="#0488FF"/>
</svg>
