<svg width="18" height="18" viewBox="0 0 18 18" fill="none" xmlns="http://www.w3.org/2000/svg">
<path d="M16.7879 7.382L17.6479 8.242C17.7346 8.32807 17.8034 8.43043 17.8503 8.54319C17.8972 8.65594 17.9214 8.77687 17.9214 8.899C17.9214 9.02114 17.8972 9.14206 17.8503 9.25482C17.8034 9.36757 17.7346 9.46993 17.6479 9.556L10.1189 17.089C10.0329 17.1757 9.93051 17.2444 9.81776 17.2914C9.705 17.3383 9.58407 17.3624 9.46194 17.3624C9.33981 17.3624 9.21888 17.3383 9.10612 17.2914C8.99337 17.2444 8.89101 17.1757 8.80494 17.089L1.26894 9.555C1.18229 9.46894 1.11352 9.36658 1.06659 9.25382C1.01966 9.14106 0.995495 9.02013 0.995495 8.898C0.995495 8.77587 1.01966 8.65494 1.06659 8.54219C1.11352 8.42943 1.18229 8.32707 1.26894 8.241L2.12894 7.381C2.21695 7.29314 2.32167 7.22381 2.43692 7.17709C2.55217 7.13037 2.67561 7.10721 2.79995 7.10898C2.9243 7.11075 3.04703 7.13741 3.1609 7.1874C3.27477 7.23738 3.37747 7.30967 3.46294 7.4L7.91094 12.069V0.930002C7.91068 0.807799 7.93455 0.686747 7.9812 0.573795C8.02784 0.460843 8.09633 0.358216 8.18274 0.271805C8.26916 0.185394 8.37178 0.116901 8.48473 0.0702572C8.59769 0.0236137 8.71874 -0.000261494 8.84094 2.16003e-06L10.0809 2.16003e-06C10.2031 -0.000261494 10.3242 0.0236137 10.4371 0.0702572C10.5501 0.116901 10.6527 0.185394 10.7391 0.271805C10.8255 0.358216 10.894 0.460843 10.9407 0.573795C10.9873 0.686747 11.0112 0.807799 11.0109 0.930002V12.066L15.4589 7.4C15.5439 7.30964 15.6462 7.2373 15.7597 7.18731C15.8732 7.13732 15.9956 7.11069 16.1196 7.10901C16.2436 7.10733 16.3667 7.13063 16.4815 7.17753C16.5964 7.22443 16.7006 7.29397 16.7879 7.382Z" fill="#F94144"/>
</svg>
