<svg width="18" height="17" viewBox="0 0 18 17" fill="none" xmlns="http://www.w3.org/2000/svg">
<path d="M7.382 1.13442L8.242 0.274422C8.32807 0.187769 8.43043 0.118997 8.54319 0.072067C8.65594 0.0251372 8.77687 0.000976563 8.899 0.000976562C9.02114 0.000976563 9.14206 0.0251372 9.25482 0.072067C9.36757 0.118997 9.46993 0.187769 9.556 0.274422L17.089 7.80342C17.1757 7.88949 17.2444 7.99185 17.2914 8.10461C17.3383 8.21736 17.3624 8.33829 17.3624 8.46042C17.3624 8.58256 17.3383 8.70348 17.2914 8.81624C17.2444 8.929 17.1757 9.03135 17.089 9.11742L9.555 16.6534C9.46894 16.7401 9.36658 16.8088 9.25382 16.8558C9.14106 16.9027 9.02013 16.9269 8.898 16.9269C8.77587 16.9269 8.65494 16.9027 8.54219 16.8558C8.42943 16.8088 8.32707 16.7401 8.241 16.6534L7.381 15.7934C7.29314 15.7054 7.22381 15.6007 7.17709 15.4854C7.13037 15.3702 7.10721 15.2468 7.10898 15.1224C7.11075 14.9981 7.13741 14.8753 7.1874 14.7615C7.23738 14.6476 7.30967 14.5449 7.4 14.4594L12.069 10.0114H0.930002C0.807799 10.0117 0.686747 9.98781 0.573795 9.94117C0.460843 9.89452 0.358216 9.82603 0.271805 9.73962C0.185394 9.65321 0.116901 9.55058 0.0702572 9.43763C0.0236137 9.32468 -0.000261494 9.20362 2.16003e-06 9.08142V7.84142C-0.000261494 7.71922 0.0236137 7.59817 0.0702572 7.48522C0.116901 7.37226 0.185394 7.26964 0.271805 7.18322C0.358216 7.09681 0.460843 7.02832 0.573795 6.98168C0.686747 6.93503 0.807799 6.91116 0.930002 6.91142H12.066L7.4 2.46342C7.30964 2.37847 7.2373 2.27618 7.18731 2.16268C7.13732 2.04917 7.11069 1.92676 7.10901 1.80274C7.10733 1.67872 7.13063 1.55564 7.17753 1.44082C7.22443 1.326 7.29397 1.2218 7.382 1.13442Z" fill="#F9C74F"/>
</svg>
