<svg width="100" height="100" viewBox="0 0 100 100" fill="none" xmlns="http://www.w3.org/2000/svg">
<rect x="1.5" y="1.5" width="97" height="97" rx="3.5" fill="white" stroke="#0A64CD" stroke-width="3"/>
<path d="M27 57.2188V43H31.9805C33.7057 43 35.0143 43.332 35.9062 43.9961C36.7982 44.6536 37.2441 45.6204 37.2441 46.8965C37.2441 47.5931 37.0651 48.2083 36.707 48.7422C36.349 49.2695 35.8509 49.6569 35.2129 49.9043C35.9421 50.0866 36.515 50.4544 36.9316 51.0078C37.3548 51.5612 37.5664 52.2383 37.5664 53.0391C37.5664 54.4062 37.1302 55.4414 36.2578 56.1445C35.3854 56.8477 34.1419 57.2057 32.5273 57.2188H27ZM29.9297 51.0273V54.8652H32.4395C33.1296 54.8652 33.6667 54.7025 34.0508 54.377C34.4414 54.0449 34.6367 53.5892 34.6367 53.0098C34.6367 51.7077 33.9629 51.0469 32.6152 51.0273H29.9297ZM29.9297 48.957H32.0977C33.5755 48.931 34.3145 48.3418 34.3145 47.1895C34.3145 46.5449 34.1257 46.0827 33.748 45.8027C33.377 45.5163 32.7878 45.373 31.9805 45.373H29.9297V48.957Z" fill="#0A64CD"/>
<path d="M42.7031 54.8652H48.9238V57.2188H39.7734V43H42.7031V54.8652Z" fill="#0A64CD"/>
<path d="M61.1406 43V52.3652C61.1406 53.9212 60.6523 55.1517 59.6758 56.0566C58.7057 56.9616 57.3776 57.4141 55.6914 57.4141C54.0312 57.4141 52.7129 56.9746 51.7363 56.0957C50.7598 55.2168 50.2617 54.0091 50.2422 52.4727V43H53.1719V52.3848C53.1719 53.3158 53.3932 53.9961 53.8359 54.4258C54.2852 54.849 54.9036 55.0605 55.6914 55.0605C57.3385 55.0605 58.1751 54.1947 58.2012 52.4629V43H61.1406Z" fill="#0A64CD"/>
<path d="M72.0977 51.0566H66.4727V54.8652H73.0742V57.2188H63.543V43H73.0547V45.373H66.4727V48.7617H72.0977V51.0566Z" fill="#0A64CD"/>
</svg>
