<svg width="100" height="100" viewBox="0 0 100 100" fill="none" xmlns="http://www.w3.org/2000/svg">
<rect x="1.5" y="1.5" width="97" height="97" rx="3.5" fill="white" stroke="#00981E" stroke-width="3"/>
<path d="M31.6016 55.6172C31.0742 56.2487 30.3288 56.7402 29.3652 57.0918C28.4017 57.4368 27.334 57.6094 26.1621 57.6094C24.9316 57.6094 23.8509 57.3424 22.9199 56.8086C21.9954 56.2682 21.2793 55.487 20.7715 54.4648C20.2702 53.4427 20.013 52.2415 20 50.8613V49.8945C20 48.4753 20.2376 47.248 20.7129 46.2129C21.1947 45.1712 21.8848 44.377 22.7832 43.8301C23.6882 43.2767 24.7461 43 25.957 43C27.6432 43 28.9616 43.4036 29.9121 44.2109C30.8626 45.0117 31.4258 46.1803 31.6016 47.7168H28.75C28.6198 46.903 28.3301 46.3073 27.8809 45.9297C27.4382 45.5521 26.8262 45.3633 26.0449 45.3633C25.0488 45.3633 24.2904 45.7376 23.7695 46.4863C23.2487 47.235 22.985 48.3483 22.9785 49.8262V50.7344C22.9785 52.2253 23.2617 53.3516 23.8281 54.1133C24.3945 54.875 25.2246 55.2559 26.3184 55.2559C27.4186 55.2559 28.2031 55.0215 28.6719 54.5527V52.1016H26.0059V49.9434H31.6016V55.6172Z" fill="#00981E"/>
<path d="M39.248 52.209H36.9141V57.4141H33.9844V43.1953H39.2676C40.9473 43.1953 42.2428 43.5697 43.1543 44.3184C44.0658 45.0671 44.5215 46.125 44.5215 47.4922C44.5215 48.4622 44.3099 49.2728 43.8867 49.9238C43.4701 50.5684 42.8353 51.0827 41.9824 51.4668L45.0586 57.2773V57.4141H41.9141L39.248 52.209ZM36.9141 49.8359H39.2773C40.013 49.8359 40.5827 49.6504 40.9863 49.2793C41.39 48.9017 41.5918 48.3841 41.5918 47.7266C41.5918 47.056 41.3997 46.5286 41.0156 46.1445C40.638 45.7604 40.0553 45.5684 39.2676 45.5684H36.9141V49.8359Z" fill="#00981E"/>
<path d="M55.3125 51.252H49.6875V55.0605H56.2891V57.4141H46.7578V43.1953H56.2695V45.5684H49.6875V48.957H55.3125V51.252Z" fill="#00981E"/>
<path d="M66.5625 51.252H60.9375V55.0605H67.5391V57.4141H58.0078V43.1953H67.5195V45.5684H60.9375V48.957H66.5625V51.252Z" fill="#00981E"/>
<path d="M80.8203 57.4141H77.8906L72.1875 48.0586V57.4141H69.2578V43.1953H72.1875L77.9004 52.5703V43.1953H80.8203V57.4141Z" fill="#00981E"/>
</svg>
