<svg width="100" height="100" viewBox="0 0 100 100" fill="none" xmlns="http://www.w3.org/2000/svg">
<rect x="1.5" y="1.5" width="97" height="97" rx="3.5" fill="white" stroke="#E42525" stroke-width="3"/>
<path d="M38.2637 52.0137H35.9297V57.2188H33V43H38.2832C39.9629 43 41.2585 43.3743 42.1699 44.123C43.0814 44.8717 43.5371 45.9297 43.5371 47.2969C43.5371 48.2669 43.3255 49.0775 42.9023 49.7285C42.4857 50.373 41.8509 50.8874 40.998 51.2715L44.0742 57.082V57.2188H40.9297L38.2637 52.0137ZM35.9297 49.6406H38.293C39.0286 49.6406 39.5983 49.4551 40.002 49.084C40.4056 48.7064 40.6074 48.1888 40.6074 47.5312C40.6074 46.8607 40.4154 46.3333 40.0312 45.9492C39.6536 45.5651 39.071 45.373 38.2832 45.373H35.9297V49.6406Z" fill="#E42525"/>
<path d="M54.3281 51.0566H48.7031V54.8652H55.3047V57.2188H45.7734V43H55.2852V45.373H48.7031V48.7617H54.3281V51.0566Z" fill="#E42525"/>
<path d="M57.0234 57.2188V43H61.3984C62.6484 43 63.765 43.2832 64.748 43.8496C65.7376 44.4095 66.5091 45.2103 67.0625 46.252C67.6159 47.2871 67.8926 48.4655 67.8926 49.7871V50.4414C67.8926 51.763 67.6191 52.9382 67.0723 53.9668C66.5319 54.9954 65.7669 55.793 64.7773 56.3594C63.7878 56.9258 62.6712 57.2122 61.4277 57.2188H57.0234ZM59.9531 45.373V54.8652H61.3691C62.515 54.8652 63.3906 54.4909 63.9961 53.7422C64.6016 52.9935 64.9108 51.9225 64.9238 50.5293V49.7773C64.9238 48.332 64.6243 47.2383 64.0254 46.4961C63.4264 45.7474 62.5508 45.373 61.3984 45.373H59.9531Z" fill="#E42525"/>
</svg>
