<svg width="100" height="100" viewBox="0 0 100 100" fill="none" xmlns="http://www.w3.org/2000/svg">
<rect x="1.5" y="1.5" width="97" height="97" rx="3.5" fill="white" stroke="#CEA12C" stroke-width="3"/>
<path d="M18.1523 49.6016L21.1113 43.1953H24.3145L19.6465 52.2578V57.4141H16.668V52.2578L12 43.1953H15.2129L18.1523 49.6016Z" fill="#CEA12C"/>
<path d="M34.168 51.252H28.543V55.0605H35.1445V57.4141H25.6133V43.1953H35.125V45.5684H28.543V48.957H34.168V51.252Z" fill="#CEA12C"/>
<path d="M39.793 55.0605H46.0137V57.4141H36.8633V43.1953H39.793V55.0605Z" fill="#CEA12C"/>
<path d="M50.6328 55.0605H56.8535V57.4141H47.7031V43.1953H50.6328V55.0605Z" fill="#CEA12C"/>
<path d="M69.5977 50.627C69.5977 52.0267 69.3503 53.2539 68.8555 54.3086C68.3607 55.3633 67.651 56.1771 66.7266 56.75C65.8086 57.3229 64.7539 57.6094 63.5625 57.6094C62.3841 57.6094 61.3327 57.3262 60.4082 56.7598C59.4837 56.1934 58.7676 55.3861 58.2598 54.3379C57.752 53.2832 57.4948 52.0723 57.4883 50.7051V50.002C57.4883 48.6022 57.7389 47.3717 58.2402 46.3105C58.748 45.2428 59.4609 44.4258 60.3789 43.8594C61.3034 43.2865 62.3581 43 63.543 43C64.7279 43 65.7793 43.2865 66.6973 43.8594C67.6217 44.4258 68.3346 45.2428 68.8359 46.3105C69.3438 47.3717 69.5977 48.599 69.5977 49.9922V50.627ZM66.6289 49.9824C66.6289 48.4915 66.362 47.3587 65.8281 46.584C65.2943 45.8092 64.5326 45.4219 63.543 45.4219C62.5599 45.4219 61.8014 45.806 61.2676 46.5742C60.7337 47.3359 60.4635 48.4557 60.457 49.9336V50.627C60.457 52.0788 60.724 53.2051 61.2578 54.0059C61.7917 54.8066 62.5599 55.207 63.5625 55.207C64.5456 55.207 65.3008 54.8229 65.8281 54.0547C66.3555 53.2799 66.6224 52.1536 66.6289 50.6758V49.9824Z" fill="#CEA12C"/>
<path d="M82.8008 53.3125L84.7148 43.1953H87.6348L84.4805 57.4141H81.5312L79.2168 47.9023L76.9023 57.4141H73.9531L70.7988 43.1953H73.7188L75.6426 53.293L77.9863 43.1953H80.4668L82.8008 53.3125Z" fill="#CEA12C"/>
</svg>
