<svg width="12" height="12" viewBox="0 0 12 12" fill="none" xmlns="http://www.w3.org/2000/svg">
<path d="M10.3773 2.15315C10.7786 2.68273 10.9746 3.33965 10.9291 4.00251C10.8836 4.66537 10.5997 5.28935 10.1298 5.75915L9.15785 6.73115C9.08754 6.80137 8.99222 6.84082 8.89285 6.84082C8.79347 6.84082 8.69816 6.80137 8.62785 6.73115L5.26885 3.37265C5.19862 3.30233 5.15918 3.20702 5.15918 3.10765C5.15918 3.00827 5.19862 2.91296 5.26885 2.84265L6.24085 1.87015C6.71064 1.40031 7.33463 1.11641 7.99749 1.07092C8.66035 1.02542 9.31727 1.22141 9.84685 1.62265L11.3693 0.100646C11.4404 0.0344059 11.5345 -0.00165568 11.6316 5.84235e-05C11.7288 0.00177253 11.8215 0.0411285 11.8902 0.109835C11.9589 0.178542 11.9982 0.271234 11.9999 0.368385C12.0017 0.465535 11.9656 0.559559 11.8993 0.630646L10.3773 2.15315Z" fill="#E42525"/>
<path d="M5.39635 5.12783C5.4647 5.05714 5.50254 4.96243 5.50173 4.86411C5.50093 4.76578 5.46153 4.67171 5.39204 4.60215C5.32254 4.53259 5.2285 4.4931 5.13018 4.4922C5.03186 4.4913 4.93711 4.52906 4.86635 4.59733L3.80235 5.66033L3.39135 5.24933C3.35653 5.21449 3.31518 5.18684 3.26967 5.16798C3.22415 5.14912 3.17537 5.13941 3.1261 5.13941C3.07684 5.13941 3.02806 5.14912 2.98254 5.16798C2.93703 5.18684 2.89568 5.21449 2.86085 5.24933L1.88835 6.22133C1.41859 6.69119 1.13479 7.31521 1.08939 7.97807C1.04398 8.64092 1.24005 9.29781 1.64135 9.82733L0.119354 11.3498C0.0825107 11.3842 0.0529597 11.4256 0.0324637 11.4716C0.0119677 11.5176 0.000946752 11.5672 5.83602e-05 11.6176C-0.000830032 11.6679 0.00843235 11.7179 0.0272929 11.7646C0.0461534 11.8113 0.0742255 11.8537 0.109835 11.8894C0.145444 11.925 0.187861 11.953 0.234555 11.9719C0.281249 11.9908 0.331264 12 0.381615 11.9991C0.431967 11.9982 0.481624 11.9872 0.527623 11.9667C0.573623 11.9462 0.615023 11.9167 0.649354 11.8798L2.17185 10.3578C2.70138 10.7591 3.35827 10.9552 4.02112 10.9098C4.68398 10.8644 5.308 10.5806 5.77785 10.1108L6.75035 9.13833C6.82058 9.06802 6.86002 8.97271 6.86002 8.87333C6.86002 8.77396 6.82058 8.67865 6.75035 8.60833L6.33685 8.19433L7.39935 7.13183C7.4362 7.0975 7.46575 7.0561 7.48624 7.0101C7.50674 6.9641 7.51776 6.91445 7.51865 6.86409C7.51954 6.81374 7.51028 6.76373 7.49142 6.71703C7.47256 6.67034 7.44448 6.62792 7.40887 6.59231C7.37326 6.5567 7.33085 6.52863 7.28415 6.50977C7.23746 6.49091 7.18744 6.48165 7.13709 6.48254C7.08674 6.48343 7.03708 6.49445 6.99109 6.51494C6.94509 6.53544 6.90369 6.56499 6.86935 6.60183L5.80635 7.66433L4.33285 6.19083L5.39635 5.12783Z" fill="#E42525"/>
</svg>
