<svg width="22" height="22" viewBox="0 0 22 22" fill="none" xmlns="http://www.w3.org/2000/svg">
<path d="M21.12 0H0.88C0.39325 0 0 0.39325 0 0.88V21.12C0 21.6068 0.39325 22 0.88 22H21.12C21.6068 22 22 21.6068 22 21.12V0.88C22 0.39325 21.6068 0 21.12 0ZM15.5127 15.0123C15.6337 15.1553 15.532 15.3725 15.345 15.3725H13.7252C13.596 15.3725 13.4722 15.3147 13.387 15.2157L11 12.3695L8.613 15.2157C8.5305 15.3147 8.40675 15.3725 8.27475 15.3725H6.655C6.468 15.3725 6.36625 15.1553 6.48725 15.0123L9.8505 11L6.48725 6.98775C6.46014 6.95588 6.44276 6.91689 6.43715 6.87543C6.43154 6.83397 6.43794 6.79176 6.45561 6.75383C6.47327 6.7159 6.50144 6.68384 6.53679 6.66144C6.57213 6.63905 6.61316 6.62727 6.655 6.6275H8.27475C8.404 6.6275 8.52775 6.68525 8.613 6.78425L11 9.6305L13.387 6.78425C13.4695 6.68525 13.5932 6.6275 13.7252 6.6275H15.345C15.532 6.6275 15.6337 6.84475 15.5127 6.98775L12.1495 11L15.5127 15.0123Z" fill="#E42525"/>
</svg>
