<svg width="49" height="49" viewBox="0 0 49 49" fill="none" xmlns="http://www.w3.org/2000/svg">
<path fill-rule="evenodd" clip-rule="evenodd" d="M24.5 0C10.9693 0 0 10.9693 0 24.5C0 38.0307 10.9693 49 24.5 49C38.0307 49 49 38.0307 49 24.5C49 10.9693 38.0307 0 24.5 0ZM19.5844 17.1656C19.1787 16.7455 18.9542 16.1829 18.9593 15.5989C18.9643 15.0149 19.1986 14.4563 19.6115 14.0434C20.0245 13.6304 20.5831 13.3962 21.1671 13.3911C21.7511 13.386 22.3137 13.6105 22.7338 14.0162L31.6429 22.9253C32.0604 23.343 32.295 23.9094 32.295 24.5C32.295 25.0906 32.0604 25.657 31.6429 26.0747L22.7338 34.9838C22.3137 35.3895 21.7511 35.614 21.1671 35.6089C20.5831 35.6038 20.0245 35.3696 19.6115 34.9566C19.1986 34.5437 18.9643 33.9851 18.9593 33.4011C18.9542 32.8171 19.1787 32.2545 19.5844 31.8344L26.9188 24.5L19.5844 17.1656Z" fill="white"/>
</svg>
