<svg width="38" height="39" viewBox="0 0 38 39" fill="none" xmlns="http://www.w3.org/2000/svg">
<path d="M4.64813 0C3.41537 0 2.2331 0.530365 1.36141 1.47442C0.489713 2.41847 0 3.69889 0 5.03398L0 37.2339C4.884e-05 37.4829 0.0683103 37.7263 0.196145 37.9333C0.323979 38.1403 0.50564 38.3015 0.718135 38.3966C0.93063 38.4918 1.16441 38.5165 1.38988 38.4677C1.61534 38.4188 1.82237 38.2987 1.98475 38.1224L8.61531 30.9414C9.05106 30.4693 9.6421 30.204 10.2584 30.2039H32.5369C33.7697 30.2039 34.952 29.6735 35.8237 28.7295C36.6953 27.7854 37.1851 26.505 37.1851 25.1699V5.03398C37.1851 3.69889 36.6953 2.41847 35.8237 1.47442C34.952 0.530365 33.7697 0 32.5369 0L4.64813 0Z" fill="black"/>
</svg>
