<svg width="15" height="9" viewBox="0 0 15 9" fill="none" xmlns="http://www.w3.org/2000/svg">
<path d="M6.82927 9C6.30081 9 5.9248 8.85577 5.70122 8.56731L0.0609756 0.536538L0 0.363462C0 0.259615 0.0609756 0.173077 0.182927 0.103847C0.304878 0.0346156 0.457317 0 0.640244 0H2.10366C2.44919 0 2.70325 0.0980768 2.86585 0.294231L7.5 6.5L12.1341 0.294231C12.3171 0.0980768 12.561 0 12.8659 0H14.3598C14.5224 0 14.6646 0.0346156 14.7866 0.103847C14.9289 0.173077 15 0.259615 15 0.363462L14.939 0.536538L9.26829 8.56731C9.04472 8.85577 8.6687 9 8.14024 9H6.82927Z" fill="black"/>
</svg>
