<svg width="1269" height="738" viewBox="0 0 1269 738" fill="none" xmlns="http://www.w3.org/2000/svg">
<g opacity="0.4">
<path d="M634.247 732.366L585.459 704.198L634.247 676.031L683.036 704.198L634.247 732.366Z" fill="#DDFFDE"/>
<path d="M575.702 698.565L526.914 670.397L575.702 642.229L624.491 670.397L575.702 698.565Z" fill="#DDFFDE"/>
<path d="M517.157 664.763L468.369 636.595L517.157 608.427L565.946 636.595L517.157 664.763Z" fill="#DDFFDE"/>
<path d="M458.61 630.962L409.821 602.794L458.61 574.626L507.398 602.794L458.61 630.962Z" fill="#DDFFDE"/>
<path d="M400.065 597.16L351.276 568.992L400.065 540.824L448.853 568.992L400.065 597.16Z" fill="#F5F5F5"/>
<path d="M341.518 563.359L292.729 535.191L341.518 507.023L390.306 535.191L341.518 563.359Z" fill="#F5F5FF"/>
<path d="M282.973 529.557L234.185 501.389L282.973 473.221L331.761 501.389L282.973 529.557Z" fill="#F5F5F5"/>
<path d="M224.425 495.756L175.637 467.588L224.425 439.42L273.213 467.588L224.425 495.756Z" fill="#F5F5FF"/>
<path d="M165.88 461.954L117.092 433.786L165.88 405.618L214.668 433.786L165.88 461.954Z" fill="#F5F5FF"/>
<path d="M107.332 428.153L58.5439 399.985L107.332 371.817L156.121 399.985L107.332 428.153Z" fill="#F5F5FF"/>
<path d="M48.7883 394.351L0 366.183L48.7883 338.015L97.5766 366.183L48.7883 394.351Z" fill="#F5F5FF"/>
<path d="M692.795 698.565L644.007 670.397L692.795 642.229L741.583 670.397L692.795 698.565Z" fill="#DDFFDE"/>
<path d="M634.247 664.763L585.459 636.595L634.247 608.427L683.036 636.595L634.247 664.763Z" fill="#DDFFDE"/>
<path d="M575.702 630.962L526.914 602.794L575.702 574.626L624.491 602.794L575.702 630.962Z" fill="#DDFFDE"/>
<path d="M517.155 597.16L468.366 568.992L517.155 540.824L565.943 568.992L517.155 597.16Z" fill="#DDFFDE"/>
<path d="M282.973 461.954L234.185 433.786L282.973 405.618L331.761 433.786L282.973 461.954Z" fill="#F5F5FF"/>
<path d="M224.425 428.153L175.637 399.985L224.425 371.817L273.213 399.985L224.425 428.153Z" fill="#F5F5FF"/>
<path d="M165.88 394.351L117.092 366.183L165.88 338.015L214.668 366.183L165.88 394.351Z" fill="#F5F5FF"/>
<path d="M107.332 360.55L58.5439 332.382L107.332 304.214L156.121 332.382L107.332 360.55Z" fill="#F5F5FF"/>
<path d="M751.339 664.763L702.551 636.595L751.339 608.427L800.127 636.595L751.339 664.763Z" fill="#DDFFDE"/>
<path d="M692.795 630.962L644.007 602.794L692.795 574.626L741.583 602.794L692.795 630.962Z" fill="#DDFFDE"/>
<path d="M634.247 597.16L585.459 568.992L634.247 540.824L683.036 568.992L634.247 597.16Z" fill="#DDFFDE"/>
<path d="M575.702 563.359L526.914 535.191L575.702 507.023L624.491 535.191L575.702 563.359Z" fill="#DDFFDE"/>
<path d="M517.157 529.557L468.369 501.389L517.157 473.221L565.946 501.389L517.157 529.557Z" fill="#F5F5F5"/>
<path d="M400.065 461.954L351.276 433.786L400.065 405.618L448.853 433.786L400.065 461.954Z" fill="#F5F5F5"/>
<path d="M341.518 428.153L292.729 399.985L341.518 371.817L390.306 399.985L341.518 428.153Z" fill="#F5F5FF"/>
<path d="M282.973 394.351L234.185 366.183L282.973 338.015L331.761 366.183L282.973 394.351Z" fill="#F5F5FF"/>
<path d="M224.425 360.55L175.637 332.382L224.425 304.214L273.213 332.382L224.425 360.55Z" fill="#F5F5FF"/>
<path d="M165.88 326.748L117.092 298.58L165.88 270.412L214.668 298.58L165.88 326.748Z" fill="#F5F5FF"/>
<path d="M809.887 630.962L761.099 602.794L809.887 574.626L858.675 602.794L809.887 630.962Z" fill="#DDFFDE"/>
<path d="M751.339 597.16L702.551 568.992L751.339 540.824L800.127 568.992L751.339 597.16Z" fill="#DDFFDE"/>
<path d="M692.795 563.359L644.007 535.191L692.795 507.023L741.583 535.191L692.795 563.359Z" fill="#DDFFDE"/>
<path d="M634.247 529.557L585.459 501.389L634.247 473.221L683.036 501.389L634.247 529.557Z" fill="#DDFFDE"/>
<path d="M575.702 495.756L526.914 467.588L575.702 439.42L624.491 467.588L575.702 495.756Z" fill="#F5F5F5"/>
<path d="M458.61 428.153L409.821 399.985L458.61 371.817L507.398 399.985L458.61 428.153Z" fill="#F5F5F5"/>
<path d="M400.065 394.351L351.276 366.183L400.065 338.015L448.853 366.183L400.065 394.351Z" fill="#F5F5FF"/>
<path d="M341.518 360.55L292.729 332.382L341.518 304.214L390.306 332.382L341.518 360.55Z" fill="#F5F5FF"/>
<path d="M282.973 326.748L234.185 298.58L282.973 270.412L331.761 298.58L282.973 326.748Z" fill="#F5F5FF"/>
<path d="M224.425 292.947L175.637 264.779L224.425 236.611L273.213 264.779L224.425 292.947Z" fill="#F5F5FF"/>
<path d="M868.431 597.16L819.643 568.992L868.431 540.824L917.219 568.992L868.431 597.16Z" fill="#F5F5F5"/>
<path d="M751.339 529.557L702.551 501.389L751.339 473.221L800.127 501.389L751.339 529.557Z" fill="#F5F5F5"/>
<path d="M692.795 495.756L644.007 467.588L692.795 439.42L741.583 467.588L692.795 495.756Z" fill="#F5F5F5"/>
<path d="M458.61 360.55L409.821 332.382L458.61 304.214L507.398 332.382L458.61 360.55Z" fill="#F5F5F5"/>
<path d="M400.065 326.748L351.276 298.58L400.065 270.412L448.853 298.58L400.065 326.748Z" fill="#F5F5F5"/>
<path d="M282.973 259.145L234.185 230.977L282.973 202.809L331.761 230.977L282.973 259.145Z" fill="#F5F5F5"/>
<path d="M926.98 563.359L878.191 535.191L926.98 507.023L975.768 535.191L926.98 563.359Z" fill="#DDFFDE"/>
<path d="M341.518 225.343L292.729 197.176L341.518 169.008L390.306 197.176L341.518 225.343Z" fill="#FFFFEB"/>
<path d="M985.524 529.557L936.735 501.389L985.524 473.221L1034.31 501.389L985.524 529.557Z" fill="#F5F5F5"/>
<path d="M868.431 461.954L819.643 433.786L868.431 405.618L917.219 433.786L868.431 461.954Z" fill="#F5F5F5"/>
<path d="M809.887 428.153L761.099 399.985L809.887 371.817L858.675 399.985L809.887 428.153Z" fill="#F5F5F5"/>
<path d="M575.702 292.947L526.914 264.779L575.702 236.611L624.491 264.779L575.702 292.947Z" fill="#F5F5F5"/>
<path d="M517.157 259.145L468.369 230.977L517.157 202.809L565.946 230.977L517.157 259.145Z" fill="#F5F5F5"/>
<path d="M400.065 191.542L351.276 163.374L400.065 135.206L448.853 163.374L400.065 191.542Z" fill="#F5F5F5"/>
<path d="M1044.07 495.756L995.28 467.588L1044.07 439.42L1092.86 467.588L1044.07 495.756Z" fill="#FFF5F5"/>
<path d="M985.524 461.954L936.735 433.786L985.524 405.618L1034.31 433.786L985.524 461.954Z" fill="#FFF5F5"/>
<path d="M926.98 428.153L878.191 399.985L926.98 371.817L975.768 399.985L926.98 428.153Z" fill="#FFF5F5"/>
<path d="M868.431 394.351L819.643 366.183L868.431 338.015L917.219 366.183L868.431 394.351Z" fill="#FFF5F5"/>
<path d="M809.887 360.55L761.099 332.382L809.887 304.214L858.675 332.382L809.887 360.55Z" fill="#F5F5F5"/>
<path d="M692.795 292.947L644.007 264.779L692.795 236.611L741.583 264.779L692.795 292.947Z" fill="#F5F5F5"/>
<path d="M634.247 259.145L585.459 230.977L634.247 202.809L683.036 230.977L634.247 259.145Z" fill="#FFFFEB"/>
<path d="M575.702 225.343L526.914 197.176L575.702 169.008L624.491 197.176L575.702 225.343Z" fill="#FFFFEB"/>
<path d="M517.157 191.542L468.369 163.374L517.157 135.206L565.946 163.374L517.157 191.542Z" fill="#FFFFEB"/>
<path d="M458.61 157.74L409.821 129.572L458.61 101.405L507.398 129.572L458.61 157.74Z" fill="#FFFFEB"/>
<path d="M1102.62 461.954L1053.83 433.786L1102.62 405.618L1151.4 433.786L1102.62 461.954Z" fill="#FFF5F5"/>
<path d="M1044.07 428.153L995.28 399.985L1044.07 371.817L1092.86 399.985L1044.07 428.153Z" fill="#FFF5F5"/>
<path d="M985.524 394.351L936.735 366.183L985.524 338.015L1034.31 366.183L985.524 394.351Z" fill="#FFF5F5"/>
<path d="M926.98 360.55L878.191 332.382L926.98 304.214L975.768 332.382L926.98 360.55Z" fill="#FFF5F5"/>
<path d="M868.431 326.748L819.643 298.58L868.431 270.412L917.219 298.58L868.431 326.748Z" fill="#F5F5F5"/>
<path d="M751.339 259.145L702.551 230.977L751.339 202.809L800.127 230.977L751.339 259.145Z" fill="#F5F5F5"/>
<path d="M692.795 225.343L644.007 197.176L692.795 169.008L741.583 197.176L692.795 225.343Z" fill="#FFFFEB"/>
<path d="M634.247 191.542L585.459 163.374L634.247 135.206L683.036 163.374L634.247 191.542Z" fill="#FFFFEB"/>
<path d="M575.702 157.74L526.914 129.572L575.702 101.405L624.491 129.572L575.702 157.74Z" fill="#FFFFEB"/>
<path d="M517.157 123.939L468.369 95.7709L517.157 67.603L565.946 95.7709L517.157 123.939Z" fill="#FFFFEB"/>
<path d="M1161.16 428.153L1112.37 399.985L1161.16 371.817L1209.95 399.985L1161.16 428.153Z" fill="#FFF5F5"/>
<path d="M1102.62 394.351L1053.83 366.183L1102.62 338.015L1151.4 366.183L1102.62 394.351Z" fill="#FFF5F5"/>
<path d="M1044.07 360.55L995.28 332.382L1044.07 304.214L1092.86 332.382L1044.07 360.55Z" fill="#FFF5F5"/>
<path d="M985.524 326.748L936.735 298.58L985.524 270.412L1034.31 298.58L985.524 326.748Z" fill="#FFF5F5"/>
<path d="M751.339 191.542L702.551 163.374L751.339 135.206L800.127 163.374L751.339 191.542Z" fill="#FFFFEB"/>
<path d="M692.795 157.74L644.007 129.572L692.795 101.405L741.583 129.572L692.795 157.74Z" fill="#FFFFEB"/>
<path d="M634.247 123.939L585.459 95.771L634.247 67.603L683.036 95.771L634.247 123.939Z" fill="#FFFFEB"/>
<path d="M575.702 90.1374L526.914 61.9695L575.702 33.8015L624.491 61.9695L575.702 90.1374Z" fill="#FFFFEB"/>
<path d="M1219.71 394.351L1170.92 366.183L1219.71 338.015L1268.5 366.183L1219.71 394.351Z" fill="#FFF5F5"/>
<path d="M1161.16 360.55L1112.37 332.382L1161.16 304.214L1209.95 332.382L1161.16 360.55Z" fill="#FFF5F5"/>
<path d="M1102.62 326.748L1053.83 298.58L1102.62 270.412L1151.4 298.58L1102.62 326.748Z" fill="#FFF5F5"/>
<path d="M1044.07 292.947L995.28 264.779L1044.07 236.611L1092.86 264.779L1044.07 292.947Z" fill="#FFF5F5"/>
<path d="M985.524 259.145L936.735 230.977L985.524 202.809L1034.31 230.977L985.524 259.145Z" fill="#F5F5F5"/>
<path d="M926.98 225.343L878.191 197.176L926.98 169.008L975.768 197.176L926.98 225.343Z" fill="#FFF5F5"/>
<path d="M868.431 191.542L819.643 163.374L868.431 135.206L917.219 163.374L868.431 191.542Z" fill="#F5F5F5"/>
<path d="M809.887 157.74L761.099 129.572L809.887 101.405L858.675 129.572L809.887 157.74Z" fill="#FFFFEB"/>
<path d="M751.339 123.939L702.551 95.771L751.339 67.603L800.127 95.771L751.339 123.939Z" fill="#FFFFEB"/>
<path d="M692.795 90.1374L644.007 61.9695L692.795 33.8015L741.583 61.9695L692.795 90.1374Z" fill="#FFFFEB"/>
<path d="M634.247 56.3359L585.459 28.1679L634.247 0L683.036 28.1679L634.247 56.3359Z" fill="#FFFFEB"/>
<path d="M683.037 704.198V709.832L634.249 738V732.366L683.037 704.198Z" fill="#CEFFD8"/>
<path d="M585.459 704.198V709.832L634.247 738V732.366L585.459 704.198Z" fill="#7AF97B"/>
<path d="M741.582 670.397V676.031L692.794 704.198V698.565L741.582 670.397Z" fill="#CEFFD8"/>
<path d="M644.007 670.397V676.031L692.795 704.198V698.565L644.007 670.397Z" fill="#7AF97B"/>
<path d="M683.037 636.595V642.229L634.249 670.397V664.763L683.037 636.595Z" fill="#CEFFD8"/>
<path d="M585.459 636.595V642.229L634.247 670.397V664.763L585.459 636.595Z" fill="#7AF97B"/>
<path d="M624.489 670.397V676.031L575.701 704.198V698.565L624.489 670.397Z" fill="#CEFFD8"/>
<path d="M526.914 670.397V676.031L575.702 704.198V698.565L526.914 670.397Z" fill="#7AF97B"/>
<path d="M565.945 636.595V642.229L517.156 670.397V664.763L565.945 636.595Z" fill="#CEFFD8"/>
<path d="M468.369 636.595V642.229L517.157 670.397V664.763L468.369 636.595Z" fill="#7AF97B"/>
<path d="M507.398 602.794V608.428L458.609 636.595V630.962L507.398 602.794Z" fill="#CEFFD8"/>
<path d="M409.821 602.794V608.428L458.61 636.595V630.962L409.821 602.794Z" fill="#7AF97B"/>
<path d="M448.853 568.992V574.626L400.064 602.794V597.16L448.853 568.992Z" fill="#E1E1E1"/>
<path d="M351.276 568.992V574.626L400.065 602.794V597.16L351.276 568.992Z" fill="#C8C8C8"/>
<path d="M390.305 535.191V540.824L341.517 568.992V563.359L390.305 535.191Z" fill="#E1E1E1"/>
<path d="M292.729 535.191V540.824L341.518 568.992V563.359L292.729 535.191Z" fill="#C8C8C8"/>
<path d="M331.761 501.389V507.023L282.973 535.191V529.557L331.761 501.389Z" fill="#E1E1E1"/>
<path d="M234.185 501.389V507.023L282.973 535.191V529.557L234.185 501.389Z" fill="#C8C8C8"/>
<path d="M273.216 467.588V473.221L224.428 501.389V495.756L273.216 467.588Z" fill="#E1E1FF"/>
<path d="M175.637 467.588V473.221L224.425 501.389V495.756L175.637 467.588Z" fill="#C8C8FF"/>
<path d="M214.668 433.786V439.42L165.88 467.588V461.954L214.668 433.786Z" fill="#E1E1FF"/>
<path d="M117.092 433.786V439.42L165.88 467.588V461.954L117.092 433.786Z" fill="#C8C8FF"/>
<path d="M156.123 399.985V405.618L107.335 433.786V428.153L156.123 399.985Z" fill="#E1E1FF"/>
<path d="M58.5439 399.985V405.618L107.332 433.786V428.153L58.5439 399.985Z" fill="#C8C8FF"/>
<path d="M97.5764 366.183V371.817L48.7881 399.985V394.351L97.5764 366.183Z" fill="#E1E1FF"/>
<path d="M0 366.183V371.817L48.7884 399.985V394.351L0 366.183Z" fill="#C8C8FF"/>
<path d="M624.489 602.794V608.428L575.701 636.595V630.962L624.489 602.794Z" fill="#CEFFD8"/>
<path d="M526.914 602.794V608.428L575.702 636.595V630.962L526.914 602.794Z" fill="#7AF97B"/>
<path d="M565.945 568.992V574.626L517.156 602.794V597.16L565.945 568.992Z" fill="#CEFFD8"/>
<path d="M468.369 568.992V574.626L517.157 602.794V597.16L468.369 568.992Z" fill="#7AF97B"/>
<path d="M507.398 535.191V540.824L458.609 568.992V563.359L507.398 535.191Z" fill="#E1E1E1"/>
<path d="M409.821 535.191V540.824L458.61 568.992V563.359L409.821 535.191Z" fill="#C8C8C8"/>
<path d="M448.853 501.389V507.023L400.064 535.191V529.557L448.853 501.389Z" fill="#E1E1FF"/>
<path d="M351.276 501.389V507.023L400.065 535.191V529.557L351.276 501.389Z" fill="#C8C8FF"/>
<path d="M390.305 467.588V473.221L341.517 501.389V495.756L390.305 467.588Z" fill="#E1E1FF"/>
<path d="M292.729 467.588V473.221L341.518 501.389V495.756L292.729 467.588Z" fill="#C8C8FF"/>
<path d="M331.761 433.786V439.42L282.973 467.588V461.954L331.761 433.786Z" fill="#E1E1FF"/>
<path d="M234.185 433.786V439.42L282.973 467.588V461.954L234.185 433.786Z" fill="#C8C8FF"/>
<path d="M273.216 399.985V405.618L224.428 433.786V428.153L273.216 399.985Z" fill="#E1E1FF"/>
<path d="M175.637 399.985V405.618L224.425 433.786V428.153L175.637 399.985Z" fill="#C8C8FF"/>
<path d="M214.668 366.183V371.817L165.88 399.985V394.351L214.668 366.183Z" fill="#E1E1FF"/>
<path d="M117.092 366.183V371.817L165.88 399.985V394.351L117.092 366.183Z" fill="#C8C8FF"/>
<path d="M156.123 332.382V338.015L107.335 366.183V360.55L156.123 332.382Z" fill="#E1E1FF"/>
<path d="M58.5439 332.382V338.015L107.332 366.183V360.55L58.5439 332.382Z" fill="#C8C8FF"/>
<path d="M800.129 636.595V642.229L751.341 670.397V664.763L800.129 636.595Z" fill="#CEFFD8"/>
<path d="M702.551 636.595V642.229L751.339 670.397V664.763L702.551 636.595Z" fill="#7AF97B"/>
<path d="M741.582 602.794V608.428L692.794 636.595V630.962L741.582 602.794Z" fill="#CEFFD8"/>
<path d="M644.007 602.794V608.428L692.795 636.595V630.962L644.007 602.794Z" fill="#7AF97B"/>
<path d="M683.037 568.992V574.626L634.249 602.794V597.16L683.037 568.992Z" fill="#CEFFD8"/>
<path d="M585.459 568.992V574.626L634.247 602.794V597.16L585.459 568.992Z" fill="#7AF97B"/>
<path d="M624.489 535.191V540.824L575.701 568.992V563.359L624.489 535.191Z" fill="#CEFFD8"/>
<path d="M526.914 535.191V540.824L575.702 568.992V563.359L526.914 535.191Z" fill="#7AF97B"/>
<path d="M565.945 501.389V507.023L517.156 535.191V529.557L565.945 501.389Z" fill="#E1E1E1"/>
<path d="M468.369 501.389V507.023L517.157 535.191V529.557L468.369 501.389Z" fill="#C8C8C8"/>
<path d="M507.398 467.588V473.221L458.609 501.389V495.756L507.398 467.588Z" fill="#E1E1FF"/>
<path d="M409.821 467.588V473.221L458.61 501.389V495.756L409.821 467.588Z" fill="#C8C8FF"/>
<path d="M448.853 433.786V439.42L400.064 467.588V461.954L448.853 433.786Z" fill="#E1E1E1"/>
<path d="M351.276 433.786V439.42L400.065 467.588V461.954L351.276 433.786Z" fill="#C8C8C8"/>
<path d="M390.305 399.985V405.618L341.517 433.786V428.153L390.305 399.985Z" fill="#E1E1FF"/>
<path d="M292.729 399.985V405.618L341.518 433.786V428.153L292.729 399.985Z" fill="#C8C8FF"/>
<path d="M331.761 366.183V371.817L282.973 399.985V394.351L331.761 366.183Z" fill="#E1E1FF"/>
<path d="M234.185 366.183V371.817L282.973 399.985V394.351L234.185 366.183Z" fill="#C8C8FF"/>
<path d="M273.216 332.382V338.015L224.428 366.183V360.55L273.216 332.382Z" fill="#E1E1FF"/>
<path d="M175.637 332.382V338.015L224.425 366.183V360.55L175.637 332.382Z" fill="#C8C8FF"/>
<path d="M214.668 298.58V304.214L165.88 332.382V326.748L214.668 298.58Z" fill="#E1E1FF"/>
<path d="M117.092 298.58V304.214L165.88 332.382V326.748L117.092 298.58Z" fill="#C8C8FF"/>
<path d="M858.674 602.794V608.428L809.886 636.595V630.962L858.674 602.794Z" fill="#CEFFD8"/>
<path d="M761.099 602.794V608.428L809.887 636.595V630.962L761.099 602.794Z" fill="#7AF97B"/>
<path d="M800.129 568.992V574.626L751.341 602.794V597.16L800.129 568.992Z" fill="#CEFFD8"/>
<path d="M702.551 568.992V574.626L751.339 602.794V597.16L702.551 568.992Z" fill="#7AF97B"/>
<path d="M741.582 535.191V540.824L692.794 568.992V563.359L741.582 535.191Z" fill="#CEFFD8"/>
<path d="M644.007 535.191V540.824L692.795 568.992V563.359L644.007 535.191Z" fill="#7AF97B"/>
<path d="M683.037 501.389V507.023L634.249 535.191V529.557L683.037 501.389Z" fill="#CEFFD8"/>
<path d="M585.459 501.389V507.023L634.247 535.191V529.557L585.459 501.389Z" fill="#7AF97B"/>
<path d="M624.489 467.588V473.221L575.701 501.389V495.756L624.489 467.588Z" fill="#E1E1E1"/>
<path d="M526.914 467.588V473.221L575.702 501.389V495.756L526.914 467.588Z" fill="#C8C8C8"/>
<path d="M565.945 433.786V439.42L517.156 467.588V461.954L565.945 433.786Z" fill="#E1E1FF"/>
<path d="M468.366 433.786V439.42L517.155 467.588V461.954L468.366 433.786Z" fill="#C8C8FF"/>
<path d="M507.398 399.985V405.618L458.609 433.786V428.153L507.398 399.985Z" fill="#E1E1E1"/>
<path d="M409.821 399.985V405.618L458.61 433.786V428.153L409.821 399.985Z" fill="#C8C8C8"/>
<path d="M448.853 366.183V371.817L400.064 399.985V394.351L448.853 366.183Z" fill="#E1E1FF"/>
<path d="M351.276 366.183V371.817L400.065 399.985V394.351L351.276 366.183Z" fill="#C8C8FF"/>
<path d="M390.305 332.382V338.015L341.517 366.183V360.55L390.305 332.382Z" fill="#E1E1FF"/>
<path d="M292.729 332.382V338.015L341.518 366.183V360.55L292.729 332.382Z" fill="#C8C8FF"/>
<path d="M331.761 298.58V304.214L282.973 332.382V326.748L331.761 298.58Z" fill="#E1E1FF"/>
<path d="M234.185 298.58V304.214L282.973 332.382V326.748L234.185 298.58Z" fill="#C8C8FF"/>
<path d="M273.216 264.779V270.412L224.428 298.58V292.947L273.216 264.779Z" fill="#E1E1FF"/>
<path d="M175.637 264.779V270.412L224.425 298.58V292.947L175.637 264.779Z" fill="#C8C8FF"/>
<path d="M917.219 568.992V574.626L868.431 602.794V597.16L917.219 568.992Z" fill="#E1E1E1"/>
<path d="M819.643 568.992V574.626L868.431 602.794V597.16L819.643 568.992Z" fill="#C8C8C8"/>
<path d="M858.674 535.191V540.824L809.886 568.992V563.359L858.674 535.191Z" fill="#CEFFD8"/>
<path d="M761.099 535.191V540.824L809.887 568.992V563.359L761.099 535.191Z" fill="#7AF97B"/>
<path d="M800.129 501.389V507.023L751.341 535.191V529.557L800.129 501.389Z" fill="#E1E1E1"/>
<path d="M702.551 501.389V507.023L751.339 535.191V529.557L702.551 501.389Z" fill="#C8C8C8"/>
<path d="M741.582 467.588V473.221L692.794 501.389V495.756L741.582 467.588Z" fill="#E1E1E1"/>
<path d="M644.007 467.588V473.221L692.795 501.389V495.756L644.007 467.588Z" fill="#C8C8C8"/>
<path d="M683.037 433.786V439.42L634.249 467.588V461.954L683.037 433.786Z" fill="#E1E1E1"/>
<path d="M585.459 433.786V439.42L634.247 467.588V461.954L585.459 433.786Z" fill="#C8C8C8"/>
<path d="M624.489 399.985V405.618L575.701 433.786V428.153L624.489 399.985Z" fill="#E1E1FF"/>
<path d="M526.914 399.985V405.618L575.702 433.786V428.153L526.914 399.985Z" fill="#C8C8FF"/>
<path d="M565.945 366.183V371.817L517.156 399.985V394.351L565.945 366.183Z" fill="#E1E1E1"/>
<path d="M468.366 366.183V371.817L517.155 399.985V394.351L468.366 366.183Z" fill="#C8C8C8"/>
<path d="M507.398 332.382V338.015L458.609 366.183V360.55L507.398 332.382Z" fill="#E1E1E1"/>
<path d="M409.821 332.382V338.015L458.61 366.183V360.55L409.821 332.382Z" fill="#C8C8C8"/>
<path d="M448.853 298.58V304.214L400.064 332.382V326.748L448.853 298.58Z" fill="#E1E1E1"/>
<path d="M351.276 298.58V304.214L400.065 332.382V326.748L351.276 298.58Z" fill="#C8C8C8"/>
<path d="M390.305 264.779V270.412L341.517 298.58V292.947L390.305 264.779Z" fill="#E1E1E1"/>
<path d="M292.729 264.779V270.412L341.518 298.58V292.947L292.729 264.779Z" fill="#C8C8C8"/>
<path d="M331.761 230.977V236.611L282.973 264.779V259.145L331.761 230.977Z" fill="#E1E1E1"/>
<path d="M234.185 230.977V236.611L282.973 264.779V259.145L234.185 230.977Z" fill="#C8C8C8"/>
<path d="M975.767 535.191V540.824L926.979 568.992V563.359L975.767 535.191Z" fill="#E1E1E1"/>
<path d="M878.191 535.191V540.824L926.98 568.992V563.359L878.191 535.191Z" fill="#C8C8C8"/>
<path d="M917.219 501.389V507.023L868.431 535.191V529.557L917.219 501.389Z" fill="#CEFFD8"/>
<path d="M819.643 501.389V507.023L868.431 535.191V529.557L819.643 501.389Z" fill="#7AF97B"/>
<path d="M858.674 467.588V473.221L809.886 501.389V495.756L858.674 467.588Z" fill="#CEFFD8"/>
<path d="M761.099 467.588V473.221L809.887 501.389V495.756L761.099 467.588Z" fill="#7AF97B"/>
<path d="M800.129 433.786V439.42L751.341 467.588V461.954L800.129 433.786Z" fill="#CEFFD8"/>
<path d="M702.551 433.786V439.42L751.339 467.588V461.954L702.551 433.786Z" fill="#7AF97B"/>
<path d="M741.582 399.985V405.618L692.794 433.786V428.153L741.582 399.985Z" fill="#CEFFD8"/>
<path d="M644.007 399.985V405.618L692.795 433.786V428.153L644.007 399.985Z" fill="#7AF97B"/>
<path d="M683.037 366.183V371.817L634.249 399.985V394.351L683.037 366.183Z" fill="#E1E1E1"/>
<path d="M585.459 366.183V371.817L634.247 399.985V394.351L585.459 366.183Z" fill="#C8C8C8"/>
<path d="M624.489 332.382V338.015L575.701 366.183V360.55L624.489 332.382Z" fill="#FFFFC9" fill-opacity="0.894118"/>
<path d="M526.914 332.382V338.015L575.702 366.183V360.55L526.914 332.382Z" fill="#FFFF96"/>
<path d="M565.945 298.58V304.214L517.156 332.382V326.748L565.945 298.58Z" fill="#FFFFC9" fill-opacity="0.894118"/>
<path d="M468.366 298.58V304.214L517.155 332.382V326.748L468.366 298.58Z" fill="#FFFF96"/>
<path d="M507.398 264.779V270.412L458.609 298.58V292.947L507.398 264.779Z" fill="#FFFFC9" fill-opacity="0.894118"/>
<path d="M409.821 264.779V270.412L458.61 298.58V292.947L409.821 264.779Z" fill="#FFFF96"/>
<path d="M448.853 230.977V236.611L400.064 264.779V259.145L448.853 230.977Z" fill="#FFFFC9" fill-opacity="0.894118"/>
<path d="M351.276 230.977V236.611L400.065 264.779V259.145L351.276 230.977Z" fill="#FFFF96"/>
<path d="M390.305 197.176V202.809L341.517 230.977V225.343L390.305 197.176Z" fill="#E1E1E1"/>
<path d="M292.729 197.176V202.809L341.518 230.977V225.343L292.729 197.176Z" fill="#C8C8C8"/>
<path d="M1034.31 501.389V507.023L985.523 535.191V529.557L1034.31 501.389Z" fill="#E1E1E1"/>
<path d="M936.735 501.389V507.023L985.524 535.191V529.557L936.735 501.389Z" fill="#C8C8C8"/>
<path d="M975.767 467.588V473.221L926.979 501.389V495.756L975.767 467.588Z" fill="#E1E1E1"/>
<path d="M878.191 467.588V473.221L926.98 501.389V495.756L878.191 467.588Z" fill="#C8C8C8"/>
<path d="M917.219 433.786V439.42L868.431 467.588V461.954L917.219 433.786Z" fill="#E1E1E1"/>
<path d="M819.643 433.786V439.42L868.431 467.588V461.954L819.643 433.786Z" fill="#C8C8C8"/>
<path d="M858.674 399.985V405.618L809.886 433.786V428.153L858.674 399.985Z" fill="#E1E1E1"/>
<path d="M761.099 399.985V405.618L809.887 433.786V428.153L761.099 399.985Z" fill="#C8C8C8"/>
<path d="M800.129 366.183V371.817L751.341 399.985V394.351L800.129 366.183Z" fill="#E1E1E1"/>
<path d="M702.551 366.183V371.817L751.339 399.985V394.351L702.551 366.183Z" fill="#C8C8C8"/>
<path d="M741.582 332.382V338.015L692.794 366.183V360.55L741.582 332.382Z" fill="#FFE1E1"/>
<path d="M644.007 332.382V338.015L692.795 366.183V360.55L644.007 332.382Z" fill="#FFC8C8"/>
<path d="M683.037 298.58V304.214L634.249 332.382V326.748L683.037 298.58Z" fill="#E1E1E1"/>
<path d="M585.459 298.58V304.214L634.247 332.382V326.748L585.459 298.58Z" fill="#C8C8C8"/>
<path d="M624.489 264.779V270.412L575.701 298.58V292.947L624.489 264.779Z" fill="#E1E1E1"/>
<path d="M526.914 264.779V270.412L575.702 298.58V292.947L526.914 264.779Z" fill="#C8C8C8"/>
<path d="M565.945 230.977V236.611L517.156 264.779V259.145L565.945 230.977Z" fill="#E1E1E1"/>
<path d="M468.366 230.977V236.611L517.155 264.779V259.145L468.366 230.977Z" fill="#C8C8C8"/>
<path d="M507.398 197.176V202.809L458.609 230.977V225.343L507.398 197.176Z" fill="#FFFFC9" fill-opacity="0.894118"/>
<path d="M409.821 197.176V202.809L458.61 230.977V225.343L409.821 197.176Z" fill="#FFFF96"/>
<path d="M448.853 163.374V169.008L400.064 197.176V191.542L448.853 163.374Z" fill="#E1E1E1"/>
<path d="M351.276 163.374V169.008L400.065 197.176V191.542L351.276 163.374Z" fill="#C8C8C8"/>
<path d="M1092.86 467.588V473.221L1044.07 501.389V495.756L1092.86 467.588Z" fill="#FFE1E1"/>
<path d="M995.28 467.588V473.221L1044.07 501.389V495.756L995.28 467.588Z" fill="#FFC8C8"/>
<path d="M1034.31 433.786V439.42L985.523 467.588V461.954L1034.31 433.786Z" fill="#FFE1E1"/>
<path d="M936.735 433.786V439.42L985.524 467.588V461.954L936.735 433.786Z" fill="#FFC8C8"/>
<path d="M975.767 399.985V405.618L926.979 433.786V428.153L975.767 399.985Z" fill="#FFE1E1"/>
<path d="M878.191 399.985V405.618L926.98 433.786V428.153L878.191 399.985Z" fill="#FFC8C8"/>
<path d="M917.219 366.183V371.817L868.431 399.985V394.351L917.219 366.183Z" fill="#FFE1E1"/>
<path d="M819.643 366.183V371.817L868.431 399.985V394.351L819.643 366.183Z" fill="#FFC8C8"/>
<path d="M858.674 332.382V338.015L809.886 366.183V360.55L858.674 332.382Z" fill="#E1E1E1"/>
<path d="M761.099 332.382V338.015L809.887 366.183V360.55L761.099 332.382Z" fill="#C8C8C8"/>
<path d="M800.129 298.58V304.214L751.341 332.382V326.748L800.129 298.58Z" fill="#FFE1E1"/>
<path d="M702.551 298.58V304.214L751.339 332.382V326.748L702.551 298.58Z" fill="#FFC8C8"/>
<path d="M741.582 264.779V270.412L692.794 298.58V292.947L741.582 264.779Z" fill="#E1E1E1"/>
<path d="M644.007 264.779V270.412L692.795 298.58V292.947L644.007 264.779Z" fill="#C8C8C8"/>
<path d="M683.037 230.977V236.611L634.249 264.779V259.145L683.037 230.977Z" fill="#FFFFC8"/>
<path d="M585.459 230.977V236.611L634.247 264.779V259.145L585.459 230.977Z" fill="#FFFF96"/>
<path d="M624.489 197.176V202.809L575.701 230.977V225.343L624.489 197.176Z" fill="#FFFFC8"/>
<path d="M526.914 197.176V202.809L575.702 230.977V225.343L526.914 197.176Z" fill="#FFFF96"/>
<path d="M565.945 163.374V169.008L517.156 197.176V191.542L565.945 163.374Z" fill="#FFFFC8"/>
<path d="M468.366 163.374V169.008L517.155 197.176V191.542L468.366 163.374Z" fill="#FFFF96"/>
<path d="M507.398 129.573V135.206L458.609 163.374V157.74L507.398 129.573Z" fill="#FFFFC8"/>
<path d="M409.821 129.573V135.206L458.61 163.374V157.74L409.821 129.573Z" fill="#FFFF96"/>
<path d="M1151.4 433.786V439.42L1102.62 467.588V461.954L1151.4 433.786Z" fill="#FFE1E1"/>
<path d="M1053.83 433.786V439.42L1102.62 467.588V461.954L1053.83 433.786Z" fill="#FFC8C8"/>
<path d="M1092.86 399.985V405.618L1044.07 433.786V428.153L1092.86 399.985Z" fill="#FFE1E1"/>
<path d="M995.28 399.985V405.618L1044.07 433.786V428.153L995.28 399.985Z" fill="#FFC8C8"/>
<path d="M1034.31 366.183V371.817L985.523 399.985V394.351L1034.31 366.183Z" fill="#FFE1E1"/>
<path d="M936.735 366.183V371.817L985.524 399.985V394.351L936.735 366.183Z" fill="#FFC8C8"/>
<path d="M975.767 332.382V338.015L926.979 366.183V360.55L975.767 332.382Z" fill="#FFE1E1"/>
<path d="M878.191 332.382V338.015L926.98 366.183V360.55L878.191 332.382Z" fill="#FFC8C8"/>
<path d="M917.219 298.58V304.214L868.431 332.382V326.748L917.219 298.58Z" fill="#E1E1E1"/>
<path d="M819.643 298.58V304.214L868.431 332.382V326.748L819.643 298.58Z" fill="#C8C8C8"/>
<path d="M858.674 264.779V270.412L809.886 298.58V292.947L858.674 264.779Z" fill="#FFE1E1"/>
<path d="M761.099 264.779V270.412L809.887 298.58V292.947L761.099 264.779Z" fill="#FFC8C8"/>
<path d="M800.129 230.977V236.611L751.341 264.779V259.145L800.129 230.977Z" fill="#E1E1E1"/>
<path d="M702.551 230.977V236.611L751.339 264.779V259.145L702.551 230.977Z" fill="#C8C8C8"/>
<path d="M741.582 197.176V202.809L692.794 230.977V225.343L741.582 197.176Z" fill="#FFFFC8"/>
<path d="M644.007 197.176V202.809L692.795 230.977V225.343L644.007 197.176Z" fill="#FFFF96"/>
<path d="M683.037 163.374V169.008L634.249 197.176V191.542L683.037 163.374Z" fill="#FFFFC8"/>
<path d="M585.459 163.374V169.008L634.247 197.176V191.542L585.459 163.374Z" fill="#FFFF96"/>
<path d="M624.489 129.573V135.206L575.701 163.374V157.74L624.489 129.573Z" fill="#FFFFC8"/>
<path d="M526.914 129.573V135.206L575.703 163.374V157.74L526.914 129.573Z" fill="#FFFF96"/>
<path d="M565.945 95.771V101.405L517.156 129.573V123.939L565.945 95.771Z" fill="#FFFFC8"/>
<path d="M468.366 95.771V101.405L517.155 129.573V123.939L468.366 95.771Z" fill="#FFFF96"/>
<path d="M1209.95 399.985V405.618L1161.16 433.786V428.153L1209.95 399.985Z" fill="#FFE1E1"/>
<path d="M1112.37 399.985V405.618L1161.16 433.786V428.153L1112.37 399.985Z" fill="#FFC8C8"/>
<path d="M1151.4 366.183V371.817L1102.62 399.985V394.351L1151.4 366.183Z" fill="#FFE1E1"/>
<path d="M1053.83 366.183V371.817L1102.62 399.985V394.351L1053.83 366.183Z" fill="#FFC8C8"/>
<path d="M1092.86 332.382V338.015L1044.07 366.183V360.55L1092.86 332.382Z" fill="#FFE1E1"/>
<path d="M995.28 332.382V338.015L1044.07 366.183V360.55L995.28 332.382Z" fill="#FFC8C8"/>
<path d="M1034.31 298.58V304.214L985.523 332.382V326.748L1034.31 298.58Z" fill="#FFE1E1"/>
<path d="M936.735 298.58V304.214L985.524 332.382V326.748L936.735 298.58Z" fill="#FFC8C8"/>
<path d="M975.767 264.779V270.412L926.979 298.58V292.947L975.767 264.779Z" fill="#FFE1E1"/>
<path d="M878.191 264.779V270.412L926.98 298.58V292.947L878.191 264.779Z" fill="#FFC8C8"/>
<path d="M917.219 230.977V236.611L868.431 264.779V259.145L917.219 230.977Z" fill="#FFE1E1"/>
<path d="M819.643 230.977V236.611L868.431 264.779V259.145L819.643 230.977Z" fill="#FFC8C8"/>
<path d="M858.674 197.176V202.809L809.886 230.977V225.343L858.674 197.176Z" fill="#E1E1E1"/>
<path d="M761.099 197.176V202.809L809.887 230.977V225.343L761.099 197.176Z" fill="#C8C8C8"/>
<path d="M800.129 163.374V169.008L751.341 197.176V191.542L800.129 163.374Z" fill="#F5F5F5"/>
<path d="M702.551 163.374V169.008L751.339 197.176V191.542L702.551 163.374Z" fill="#FFFF96"/>
<path d="M741.582 129.573V135.206L692.794 163.374V157.74L741.582 129.573Z" fill="#FFFFC8"/>
<path d="M644.007 129.573V135.206L692.795 163.374V157.74L644.007 129.573Z" fill="#FFFF96"/>
<path d="M683.037 95.771V101.405L634.249 129.573V123.939L683.037 95.771Z" fill="#FFFFC8"/>
<path d="M585.459 95.771V101.405L634.247 129.573V123.939L585.459 95.771Z" fill="#FFFF96"/>
<path d="M624.489 61.9695V67.6031L575.701 95.771V90.1374L624.489 61.9695Z" fill="#FFFFC8"/>
<path d="M526.914 61.9695V67.6031L575.702 95.771V90.1374L526.914 61.9695Z" fill="#FFFF96"/>
<path d="M1268.5 366.183V371.817L1219.71 399.985V394.351L1268.5 366.183Z" fill="#FFE1E1"/>
<path d="M1170.92 366.183V371.817L1219.71 399.985V394.351L1170.92 366.183Z" fill="#FFC8C8"/>
<path d="M1209.95 332.382V338.015L1161.16 366.183V360.55L1209.95 332.382Z" fill="#FFE1E1"/>
<path d="M1112.37 332.382V338.015L1161.16 366.183V360.55L1112.37 332.382Z" fill="#FFC8C8"/>
<path d="M1151.4 298.58V304.214L1102.62 332.382V326.748L1151.4 298.58Z" fill="#FFE1E1"/>
<path d="M1053.83 298.58V304.214L1102.62 332.382V326.748L1053.83 298.58Z" fill="#FFC8C8"/>
<path d="M1092.86 264.779V270.412L1044.07 298.58V292.947L1092.86 264.779Z" fill="#FFE1E1"/>
<path d="M995.28 264.779V270.412L1044.07 298.58V292.947L995.28 264.779Z" fill="#FFC8C8"/>
<path d="M1034.31 230.977V236.611L985.523 264.779V259.145L1034.31 230.977Z" fill="#E1E1E1"/>
<path d="M936.735 230.977V236.611L985.524 264.779V259.145L936.735 230.977Z" fill="#C8C8C8"/>
<path d="M975.767 197.176V202.809L926.979 230.977V225.343L975.767 197.176Z" fill="#E1E1E1"/>
<path d="M878.191 197.176V202.809L926.98 230.977V225.343L878.191 197.176Z" fill="#C8C8C8"/>
<path d="M917.219 163.374V169.008L868.431 197.176V191.542L917.219 163.374Z" fill="#E1E1E1"/>
<path d="M819.643 163.374V169.008L868.431 197.176V191.542L819.643 163.374Z" fill="#C8C8C8"/>
<path d="M858.674 129.573V135.206L809.886 163.374V157.74L858.674 129.573Z" fill="#FFFFC8"/>
<path d="M761.099 129.573V135.206L809.887 163.374V157.74L761.099 129.573Z" fill="#FFFF96"/>
<path d="M800.129 95.771V101.405L751.341 129.573V123.939L800.129 95.771Z" fill="#FFFFC8"/>
<path d="M702.551 95.771V101.405L751.339 129.573V123.939L702.551 95.771Z" fill="#FFFF96"/>
<path d="M741.582 61.9695V67.6031L692.794 95.771V90.1374L741.582 61.9695Z" fill="#FFFFC8"/>
<path d="M644.007 61.9695V67.6031L692.795 95.771V90.1374L644.007 61.9695Z" fill="#FFFF96"/>
<path d="M683.037 28.168V33.8016L634.249 61.9695V56.3359L683.037 28.168Z" fill="#FFFFC8"/>
<path d="M585.459 28.168V33.8016L634.247 61.9695V56.3359L585.459 28.168Z" fill="#FFFF96"/>
<path d="M985.527 377.45L1014.8 360.55L985.527 343.649L956.254 360.55L985.527 377.45Z" fill="#FF0000"/>
<path d="M1014.8 360.55V366.183L985.525 383.084V377.45L1014.8 360.55Z" fill="#C80000"/>
<path d="M956.252 360.55V366.183L985.525 383.084V377.45L956.252 360.55Z" fill="#960000"/>
<path d="M926.98 236.611L975.768 264.779L926.98 292.947L878.191 264.779L926.98 236.611Z" fill="#FFF5F5" stroke="#E10000" stroke-width="2" stroke-linejoin="bevel"/>
<path d="M458.61 225.343L409.821 197.176L458.61 169.008L507.398 197.176L458.61 225.343Z" fill="#FFFFEB" stroke="#D0D500" stroke-width="2" stroke-linejoin="round"/>
<path d="M458.61 563.359L409.821 535.191L458.61 507.023L507.398 535.191L458.61 563.359Z" fill="#F5F5F5" stroke="black" stroke-width="2" stroke-linecap="round" stroke-linejoin="round"/>
<path d="M341.518 292.947L292.729 264.779L341.518 236.611L390.306 264.779L341.518 292.947Z" fill="#F5F5F5" stroke="black" stroke-width="2" stroke-linecap="round" stroke-linejoin="round"/>
<path d="M926.98 495.756L878.191 467.588L926.98 439.42L975.768 467.588L926.98 495.756Z" fill="#F5F5F5" stroke="black" stroke-width="2" stroke-linecap="round" stroke-linejoin="round"/>
<path d="M809.788 225.336L761 197.168L809.788 169L858.577 197.168L809.788 225.336Z" fill="#FBFBFB" stroke="black" stroke-width="2" stroke-linecap="round" stroke-linejoin="round"/>
<path d="M809.887 563.359L761.099 535.191L809.887 507.023L858.675 535.191L809.887 563.359Z" fill="#DDFFDE" stroke="#00B714" stroke-width="2" stroke-linejoin="round"/>
<path d="M868.431 529.557L819.643 501.389L868.431 473.221L917.219 501.389L868.431 529.557Z" fill="#DDFFDE" stroke="#007700"/>
<path d="M809.887 495.756L761.099 467.588L809.887 439.42L858.675 467.588L809.887 495.756Z" fill="#DDFFDE" stroke="#006F00"/>
<path d="M751.339 461.954L702.551 433.786L751.339 405.618L800.127 433.786L751.339 461.954Z" fill="#DDFFDE" stroke="#006F00"/>
<path d="M692.795 428.153L644.007 399.985L692.795 371.817L741.583 399.985L692.795 428.153Z" fill="#DDFFDE" stroke="#006F00" stroke-width="2"/>
<path d="M341.518 495.756L292.729 467.588L341.518 439.42L390.306 467.588L341.518 495.756Z" fill="#F5F5FF" stroke="#3433CB" stroke-width="2" stroke-linejoin="round"/>
<path d="M400.065 529.557L351.276 501.389L400.065 473.221L448.853 501.389L400.065 529.557Z" fill="#F5F5FF" stroke="#0000B1" stroke-linejoin="round"/>
<path d="M458.61 495.756L409.821 467.588L458.61 439.42L507.398 467.588L458.61 495.756Z" fill="#F5F5FF" stroke="#0000B1" stroke-linejoin="round"/>
<path d="M517.157 461.954L468.369 433.786L517.157 405.618L565.946 433.786L517.157 461.954Z" fill="#F5F5FF" stroke="#0000B1" stroke-linejoin="round"/>
<path d="M575.702 428.153L526.914 399.985L575.702 371.817L624.491 399.985L575.702 428.153Z" fill="#F5F5FF" stroke="#0000B1" stroke-width="2" stroke-linejoin="round"/>
<path d="M751.339 326.748L702.551 298.58L751.339 270.412L800.127 298.58L751.339 326.748Z" fill="#FFF5F5" stroke="#C90000"/>
<path d="M809.887 292.947L761.099 264.779L809.887 236.611L858.675 264.779L809.887 292.947Z" fill="#FFF5F5" stroke="#C90000"/>
<path d="M868.431 259.145L819.643 230.977L868.431 202.809L917.219 230.977L868.431 259.145Z" fill="#FFF5F5" stroke="#C90000"/>
<path d="M692.795 360.55L644.007 332.382L692.795 304.214L741.583 332.382L692.795 360.55Z" fill="#FFF5F5" stroke="#C90000" stroke-width="2"/>
<path d="M517.157 326.748L468.369 298.58L517.157 270.412L565.946 298.58L517.157 326.748Z" fill="#FFFFEB" stroke="#C9D300"/>
<path d="M458.61 292.947L409.821 264.779L458.61 236.611L507.398 264.779L458.61 292.947Z" fill="#FFFFEB" stroke="#C9D300"/>
<path d="M400.065 259.145L351.276 230.977L400.065 202.809L448.853 230.977L400.065 259.145Z" fill="#FFFFEB" stroke="#C9D300"/>
<path d="M575.702 360.55L526.914 332.382L575.702 304.214L624.491 332.382L575.702 360.55Z" fill="#FFFFEB" stroke="#C9D300" stroke-width="2"/>
<path d="M1044.07 411.252L1073.34 394.351L1044.07 377.45L1014.8 394.351L1044.07 411.252Z" fill="#FF0000"/>
<path d="M1073.34 394.351V399.985L1044.07 416.886V411.252L1073.34 394.351Z" fill="#C80000"/>
<path d="M1014.8 394.351V399.985L1044.07 416.886V411.252L1014.8 394.351Z" fill="#960000"/>
<path d="M1102.61 377.45L1131.89 360.55L1102.61 343.649L1073.34 360.55L1102.61 377.45Z" fill="#FF0000"/>
<path d="M1131.89 360.55V366.183L1102.62 383.084V377.45L1131.89 360.55Z" fill="#C80000"/>
<path d="M1073.34 360.55V366.183L1102.61 383.084V377.45L1073.34 360.55Z" fill="#960000"/>
<path d="M1044.07 343.649L1073.34 326.748L1044.07 309.847L1014.8 326.748L1044.07 343.649Z" fill="#FF0000"/>
<path d="M1073.34 326.748V332.382L1044.07 349.282V343.649L1073.34 326.748Z" fill="#C80000"/>
<path d="M1014.8 326.748V332.382L1044.07 349.282V343.649L1014.8 326.748Z" fill="#960000"/>
<path d="M634.249 107.038L663.522 90.1373L634.249 73.2366L604.976 90.1373L634.249 107.038Z" fill="#FEFF00"/>
<path d="M663.523 90.1373V95.7709L634.25 112.672V107.038L663.523 90.1373Z" fill="#DED51A"/>
<path d="M604.976 90.1373V95.7709L634.249 112.672V107.038L604.976 90.1373Z" fill="#948D00"/>
<path d="M224.427 411.252L253.7 394.351L224.427 377.45L195.154 394.351L224.427 411.252Z" fill="#484DF7"/>
<path d="M253.701 394.351V399.985L224.428 416.886V411.252L253.701 394.351Z" fill="#3F6CFF"/>
<path d="M195.154 394.351V399.985L224.427 416.886V411.252L195.154 394.351Z" fill="#001596"/>
<path d="M634.249 647.863L663.522 630.962L634.249 614.061L604.976 630.962L634.249 647.863Z" fill="#00FF00"/>
<path d="M663.523 630.962V636.595L634.25 653.496V647.863L663.523 630.962Z" fill="#00C800"/>
<path d="M604.976 630.962V636.595L634.249 653.496V647.863L604.976 630.962Z" fill="#009600"/>
<path d="M634.249 580.26L663.522 563.359L634.249 546.458L604.976 563.359L634.249 580.26Z" fill="#00FF00"/>
<path d="M663.523 563.359V568.992L634.25 585.893V580.26L663.523 563.359Z" fill="#00C800"/>
<path d="M604.976 563.359V568.992L634.249 585.893V580.26L604.976 563.359Z" fill="#009600"/>
<path d="M575.702 614.061L604.975 597.16L575.702 580.26L546.429 597.16L575.702 614.061Z" fill="#00FF00"/>
<path d="M604.975 597.16V602.794L575.702 619.695V614.061L604.975 597.16Z" fill="#00C800"/>
<path d="M546.429 597.16V602.794L575.702 619.695V614.061L546.429 597.16Z" fill="#009600"/>
<path d="M692.794 614.061L722.067 597.16L692.794 580.26L663.521 597.16L692.794 614.061Z" fill="#00FF00"/>
<path d="M722.067 597.16V602.794L692.794 619.695V614.061L722.067 597.16Z" fill="#00C800"/>
<path d="M663.521 597.16V602.794L692.794 619.695V614.061L663.521 597.16Z" fill="#009600"/>
<path d="M692.794 140.84L722.067 123.939L692.794 107.038L663.521 123.939L692.794 140.84Z" fill="#FEFF00"/>
<path d="M722.067 123.939V129.573L692.794 146.473V140.84L722.067 123.939Z" fill="#DED51A"/>
<path d="M663.521 123.939V129.573L692.794 146.473V140.84L663.521 123.939Z" fill="#948D00"/>
<path d="M634.249 174.641L663.522 157.74L634.249 140.84L604.976 157.74L634.249 174.641Z" fill="#FEFF00"/>
<path d="M663.523 157.74V163.374L634.25 180.275V174.641L663.523 157.74Z" fill="#DED51A"/>
<path d="M604.976 157.74V163.374L634.249 180.275V174.641L604.976 157.74Z" fill="#948D00"/>
<path d="M575.702 140.84L604.975 123.939L575.702 107.038L546.429 123.939L575.702 140.84Z" fill="#FEFF00"/>
<path d="M604.975 123.939V129.573L575.702 146.473V140.84L604.975 123.939Z" fill="#DED51A"/>
<path d="M546.429 123.939V129.573L575.702 146.473V140.84L546.429 123.939Z" fill="#948D00"/>
<path d="M224.427 343.649L253.7 326.748L224.427 309.847L195.154 326.748L224.427 343.649Z" fill="#484DF7"/>
<path d="M253.701 326.748V332.382L224.428 349.282V343.649L253.701 326.748Z" fill="#3F6CFF"/>
<path d="M195.154 326.748V332.382L224.427 349.282V343.649L195.154 326.748Z" fill="#001596"/>
<path d="M165.879 377.45L195.152 360.55L165.879 343.649L136.606 360.55L165.879 377.45Z" fill="#484DF7"/>
<path d="M195.153 360.55V366.183L165.88 383.084V377.45L195.153 360.55Z" fill="#3F6CFF"/>
<path d="M136.606 360.55V366.183L165.879 383.084V377.45L136.606 360.55Z" fill="#001596"/>
<path d="M282.971 377.45L312.244 360.55L282.971 343.649L253.698 360.55L282.971 377.45Z" fill="#484DF7"/>
<path d="M312.245 360.55V366.183L282.972 383.084V377.45L312.245 360.55Z" fill="#3F6CFF"/>
<path d="M253.698 360.55V366.183L282.971 383.084V377.45L253.698 360.55Z" fill="#001596"/>
</g>
</svg>
