<svg width="18" height="24" viewBox="0 0 18 24" fill="none" xmlns="http://www.w3.org/2000/svg">
<path d="M16.0923 12.4099C16.0923 13.2271 15.9598 14.0137 15.7174 14.7468L14.5703 13.5675C14.6453 13.1865 14.6831 12.7987 14.683 12.4099V10.9612C14.683 10.769 14.7572 10.5848 14.8894 10.4489C15.0215 10.3131 15.2008 10.2368 15.3876 10.2368C15.5745 10.2368 15.7538 10.3131 15.8859 10.4489C16.018 10.5848 16.0923 10.769 16.0923 10.9612V12.4099ZM9.0459 18.2051C10.1987 18.2051 11.2697 17.8501 12.1632 17.2387L13.1751 18.2804C12.1691 19.0304 10.9872 19.4919 9.75053 19.6176V22.5514H13.9784C14.1652 22.5514 14.3445 22.6277 14.4766 22.7636C14.6088 22.8994 14.683 23.0837 14.683 23.2758C14.683 23.4679 14.6088 23.6522 14.4766 23.788C14.3445 23.9239 14.1652 24.0002 13.9784 24.0002H4.11343C3.92655 24.0002 3.74732 23.9239 3.61517 23.788C3.48303 23.6522 3.40879 23.4679 3.40879 23.2758C3.40879 23.0837 3.48303 22.8994 3.61517 22.7636C3.74732 22.6277 3.92655 22.5514 4.11343 22.5514H8.34126V19.6176C6.60317 19.4381 4.99194 18.6012 3.82013 17.2694C2.64832 15.9375 1.99949 14.2057 1.99951 12.4099V10.9612C1.99951 10.769 2.07375 10.5848 2.2059 10.4489C2.33804 10.3131 2.51727 10.2368 2.70415 10.2368C2.89103 10.2368 3.07026 10.3131 3.2024 10.4489C3.33455 10.5848 3.40879 10.769 3.40879 10.9612V12.4099C3.40879 13.9469 4.0027 15.4209 5.05986 16.5077C6.11702 17.5945 7.55084 18.2051 9.0459 18.2051ZM13.2737 5.16603V12.2346L5.04073 3.77085C5.36337 2.79617 6.012 1.97082 6.87115 1.44174C7.73029 0.912657 8.7442 0.714177 9.73236 0.881633C10.7205 1.04909 11.6188 1.57161 12.2673 2.35618C12.9158 3.14075 13.2725 4.13646 13.2737 5.16603V5.16603Z" fill="white"/>
<path d="M11.1396 16.1867L4.81754 9.68601V12.4097C4.81732 13.1708 5.01149 13.9186 5.38065 14.5783C5.7498 15.238 6.28099 15.7865 6.92107 16.1689C7.56115 16.5513 8.28768 16.7542 9.02799 16.7573C9.7683 16.7604 10.4964 16.5637 11.1396 16.1867V16.1867ZM0.0908203 2.78111L17.0021 20.1665L17.9999 19.1408L1.08859 1.75537L0.0908203 2.78111V2.78111Z" fill="white"/>
</svg>
