<svg width="17" height="22" viewBox="0 0 17 22" fill="none" xmlns="http://www.w3.org/2000/svg">
<path d="M15.1887 10.9981C15.1887 11.7737 15.063 12.5205 14.8329 13.2163L13.7439 12.0969C13.8152 11.7352 13.8511 11.3671 13.851 10.9981V9.62284C13.851 9.44047 13.9214 9.26557 14.0469 9.13662C14.1723 9.00766 14.3424 8.93522 14.5198 8.93522C14.6972 8.93522 14.8674 9.00766 14.9928 9.13662C15.1182 9.26557 15.1887 9.44047 15.1887 9.62284V10.9981ZM8.50001 16.499C9.59428 16.499 10.611 16.1621 11.4591 15.5818L12.4196 16.5706C11.4646 17.2825 10.3428 17.7205 9.16888 17.8399V20.6248H13.1821C13.3595 20.6248 13.5296 20.6972 13.6551 20.8262C13.7805 20.9551 13.851 21.13 13.851 21.3124C13.851 21.4947 13.7805 21.6696 13.6551 21.7986C13.5296 21.9276 13.3595 22 13.1821 22H3.81792C3.64052 22 3.47039 21.9276 3.34495 21.7986C3.21952 21.6696 3.14905 21.4947 3.14905 21.3124C3.14905 21.13 3.21952 20.9551 3.34495 20.8262C3.47039 20.6972 3.64052 20.6248 3.81792 20.6248H7.83114V17.8399C6.18128 17.6694 4.65183 16.875 3.53951 15.6108C2.42718 14.3466 1.81129 12.7027 1.81131 10.9981V9.62284C1.81131 9.44047 1.88178 9.26557 2.00721 9.13662C2.13265 9.00766 2.30278 8.93522 2.48018 8.93522C2.65757 8.93522 2.8277 9.00766 2.95314 9.13662C3.07858 9.26557 3.14905 9.44047 3.14905 9.62284V10.9981C3.14905 12.457 3.71281 13.8562 4.71631 14.8878C5.71981 15.9195 7.08084 16.499 8.50001 16.499ZM12.5132 4.12188V10.8317L4.69815 2.79752C5.00441 1.87231 5.62012 1.08886 6.43565 0.586638C7.25118 0.0844129 8.21362 -0.103992 9.15162 0.0549632C10.0896 0.213919 10.9423 0.709919 11.5579 1.45466C12.1735 2.19941 12.512 3.14457 12.5132 4.12188V4.12188Z" fill="#E42525"/>
<path d="M10.4879 14.5833L4.48678 8.41259V10.998C4.48657 11.7205 4.67089 12.4303 5.02131 13.0565C5.37172 13.6827 5.87594 14.2034 6.48353 14.5664C7.09112 14.9294 7.78078 15.122 8.48351 15.1249C9.18624 15.1279 9.87741 14.9411 10.4879 14.5833V14.5833ZM0 1.85819L16.0529 18.3611L17 17.3874L0.94712 0.884521L0 1.85819V1.85819Z" fill="#E42525"/>
</svg>
