<svg width="19" height="30" viewBox="0 0 19 30" fill="none" xmlns="http://www.w3.org/2000/svg">
<path d="M3.79932 5.86505C3.79932 4.41146 4.39985 3.0174 5.46881 1.98956C6.53777 0.961714 7.98758 0.384277 9.49932 0.384277C11.0111 0.384277 12.4609 0.961714 13.5298 1.98956C14.5988 3.0174 15.1993 4.41146 15.1993 5.86505V14.9997C15.1993 16.4533 14.5988 17.8473 13.5298 18.8752C12.4609 19.903 11.0111 20.4804 9.49932 20.4804C7.98758 20.4804 6.53777 19.903 5.46881 18.8752C4.39985 17.8473 3.79932 16.4533 3.79932 14.9997V5.86505Z" fill="white"/>
<path d="M0.95 12.2593C1.20196 12.2593 1.44359 12.3555 1.62175 12.5268C1.79991 12.6981 1.9 12.9305 1.9 13.1727V14.9997C1.9 16.9378 2.70071 18.7965 4.12599 20.167C5.55126 21.5374 7.48435 22.3074 9.5 22.3074C11.5156 22.3074 13.4487 21.5374 14.874 20.167C16.2993 18.7965 17.1 16.9378 17.1 14.9997V13.1727C17.1 12.9305 17.2001 12.6981 17.3782 12.5268C17.5564 12.3555 17.798 12.2593 18.05 12.2593C18.302 12.2593 18.5436 12.3555 18.7218 12.5268C18.8999 12.6981 19 12.9305 19 13.1727V14.9997C19 17.2642 18.1253 19.448 16.5454 21.1274C14.9656 22.8068 12.7933 23.8622 10.45 24.0886V27.7881H16.15C16.402 27.7881 16.6436 27.8844 16.8218 28.0557C16.9999 28.227 17.1 28.4593 17.1 28.7016C17.1 28.9439 16.9999 29.1762 16.8218 29.3475C16.6436 29.5188 16.402 29.615 16.15 29.615H2.85C2.59804 29.615 2.35641 29.5188 2.17825 29.3475C2.00009 29.1762 1.9 28.9439 1.9 28.7016C1.9 28.4593 2.00009 28.227 2.17825 28.0557C2.35641 27.8844 2.59804 27.7881 2.85 27.7881H8.55V24.0886C6.2067 23.8622 4.03441 22.8068 2.45457 21.1274C0.87473 19.448 -2.95862e-05 17.2642 7.50512e-10 14.9997V13.1727C7.50512e-10 12.9305 0.100089 12.6981 0.278249 12.5268C0.456408 12.3555 0.698044 12.2593 0.95 12.2593Z" fill="white"/>
</svg>
