<svg width="13" height="20" viewBox="0 0 13 20" fill="none" xmlns="http://www.w3.org/2000/svg">
<path d="M2.59982 3.75C2.59982 2.75544 3.01071 1.80161 3.74211 1.09835C4.4735 0.395088 5.46548 0 6.49982 0C7.53417 0 8.52615 0.395088 9.25754 1.09835C9.98893 1.80161 10.3998 2.75544 10.3998 3.75V10C10.3998 10.9946 9.98893 11.9484 9.25754 12.6517C8.52615 13.3549 7.53417 13.75 6.49982 13.75C5.46548 13.75 4.4735 13.3549 3.74211 12.6517C3.01071 11.9484 2.59982 10.9946 2.59982 10V3.75Z" fill="#00981E"/>
<path d="M0.65 8.125C0.822391 8.125 0.987721 8.19085 1.10962 8.30806C1.23152 8.42527 1.3 8.58424 1.3 8.75V10C1.3 11.3261 1.84786 12.5979 2.82304 13.5355C3.79823 14.4732 5.12087 15 6.5 15C7.87913 15 9.20177 14.4732 10.177 13.5355C11.1521 12.5979 11.7 11.3261 11.7 10V8.75C11.7 8.58424 11.7685 8.42527 11.8904 8.30806C12.0123 8.19085 12.1776 8.125 12.35 8.125C12.5224 8.125 12.6877 8.19085 12.8096 8.30806C12.9315 8.42527 13 8.58424 13 8.75V10C13 11.5494 12.4015 13.0436 11.3206 14.1927C10.2396 15.3418 8.75331 16.0638 7.15 16.2188V18.75H11.05C11.2224 18.75 11.3877 18.8158 11.5096 18.9331C11.6315 19.0503 11.7 19.2092 11.7 19.375C11.7 19.5408 11.6315 19.6997 11.5096 19.8169C11.3877 19.9342 11.2224 20 11.05 20H1.95C1.77761 20 1.61228 19.9342 1.49038 19.8169C1.36848 19.6997 1.3 19.5408 1.3 19.375C1.3 19.2092 1.36848 19.0503 1.49038 18.9331C1.61228 18.8158 1.77761 18.75 1.95 18.75H5.85V16.2188C4.24669 16.0638 2.76039 15.3418 1.67944 14.1927C0.598499 13.0436 -2.02432e-05 11.5494 5.13508e-10 10V8.75C5.13508e-10 8.58424 0.0684821 8.42527 0.190381 8.30806C0.312279 8.19085 0.477609 8.125 0.65 8.125Z" fill="#00981E"/>
</svg>
