<svg width="172" height="28" viewBox="0 0 172 28" fill="none" xmlns="http://www.w3.org/2000/svg">
<path d="M2.2 22.18C1.62 22.18 1.15 22.01 0.79 21.67C0.45 21.31 0.28 20.83 0.28 20.23V2.68C0.28 2.1 0.44 1.65 0.76 1.33C1.1 1.01 1.56 0.849999 2.14 0.849999H9.52C11.78 0.849999 13.54 1.42 14.8 2.56C16.06 3.68 16.69 5.26 16.69 7.3C16.69 9.34 16.06 10.93 14.8 12.07C13.54 13.21 11.78 13.78 9.52 13.78H4.15V20.23C4.15 20.83 3.97 21.31 3.61 21.67C3.27 22.01 2.8 22.18 2.2 22.18ZM9.04 10.81C11.7 10.81 13.03 9.65 13.03 7.33C13.03 5.01 11.7 3.85 9.04 3.85H4.15V10.81H9.04ZM26.3017 7.03C26.8217 6.99 27.2317 7.1 27.5317 7.36C27.8317 7.62 27.9817 8.01 27.9817 8.53C27.9817 9.07 27.8517 9.47 27.5917 9.73C27.3317 9.99 26.8617 10.16 26.1817 10.24L25.2817 10.33C24.1017 10.45 23.2317 10.85 22.6717 11.53C22.1317 12.21 21.8617 13.06 21.8617 14.08V20.38C21.8617 20.96 21.6817 21.41 21.3217 21.73C20.9617 22.03 20.5117 22.18 19.9717 22.18C19.4317 22.18 18.9817 22.03 18.6217 21.73C18.2817 21.41 18.1117 20.96 18.1117 20.38V8.77C18.1117 8.21 18.2817 7.78 18.6217 7.48C18.9817 7.18 19.4217 7.03 19.9417 7.03C20.4617 7.03 20.8817 7.18 21.2017 7.48C21.5217 7.76 21.6817 8.17 21.6817 8.71V9.91C22.0617 9.03 22.6217 8.35 23.3617 7.87C24.1217 7.39 24.9617 7.12 25.8817 7.06L26.3017 7.03ZM34.6431 22.24C33.1431 22.24 31.8231 21.93 30.6831 21.31C29.5631 20.69 28.6931 19.8 28.0731 18.64C27.4531 17.48 27.1431 16.13 27.1431 14.59C27.1431 13.05 27.4531 11.71 28.0731 10.57C28.6931 9.41 29.5631 8.52 30.6831 7.9C31.8231 7.28 33.1431 6.97 34.6431 6.97C36.1431 6.97 37.4531 7.28 38.5731 7.9C39.7131 8.52 40.5831 9.41 41.1831 10.57C41.8031 11.71 42.1131 13.05 42.1131 14.59C42.1131 16.13 41.8031 17.48 41.1831 18.64C40.5831 19.8 39.7131 20.69 38.5731 21.31C37.4531 21.93 36.1431 22.24 34.6431 22.24ZM34.6131 19.33C35.8331 19.33 36.7631 18.93 37.4031 18.13C38.0431 17.33 38.3631 16.15 38.3631 14.59C38.3631 13.05 38.0431 11.88 37.4031 11.08C36.7631 10.26 35.8431 9.85 34.6431 9.85C33.4431 9.85 32.5131 10.26 31.8531 11.08C31.2131 11.88 30.8931 13.05 30.8931 14.59C30.8931 16.15 31.2131 17.33 31.8531 18.13C32.4931 18.93 33.4131 19.33 34.6131 19.33ZM41.759 27.46C41.039 27.5 40.489 27.4 40.109 27.16C39.709 26.92 39.509 26.55 39.509 26.05C39.509 25.23 40.009 24.78 41.009 24.7L41.819 24.64C42.499 24.6 43.009 24.39 43.349 24.01C43.689 23.63 43.859 23.05 43.859 22.27V8.8C43.859 8.22 44.029 7.78 44.369 7.48C44.729 7.18 45.179 7.03 45.719 7.03C46.259 7.03 46.709 7.18 47.069 7.48C47.429 7.78 47.609 8.22 47.609 8.8V22C47.609 25.36 45.929 27.16 42.569 27.4L41.759 27.46ZM45.689 4.36C45.009 4.36 44.469 4.18 44.069 3.82C43.669 3.44 43.469 2.95 43.469 2.35C43.469 1.75 43.669 1.27 44.069 0.91C44.469 0.55 45.009 0.37 45.689 0.37C46.349 0.37 46.879 0.55 47.279 0.91C47.699 1.27 47.909 1.75 47.909 2.35C47.909 2.95 47.709 3.44 47.309 3.82C46.909 4.18 46.369 4.36 45.689 4.36ZM61.7362 17.98C62.0762 17.98 62.3462 18.11 62.5462 18.37C62.7662 18.63 62.8762 18.98 62.8762 19.42C62.8762 20.04 62.5062 20.56 61.7662 20.98C61.0862 21.36 60.3162 21.67 59.4562 21.91C58.5962 22.13 57.7762 22.24 56.9962 22.24C54.6362 22.24 52.7662 21.56 51.3862 20.2C50.0062 18.84 49.3162 16.98 49.3162 14.62C49.3162 13.12 49.6162 11.79 50.2162 10.63C50.8162 9.47 51.6562 8.57 52.7362 7.93C53.8362 7.29 55.0762 6.97 56.4562 6.97C57.7762 6.97 58.9262 7.26 59.9062 7.84C60.8862 8.42 61.6462 9.24 62.1862 10.3C62.7262 11.36 62.9962 12.61 62.9962 14.05C62.9962 14.91 62.6162 15.34 61.8562 15.34H53.0062C53.1262 16.72 53.5162 17.74 54.1762 18.4C54.8362 19.04 55.7962 19.36 57.0562 19.36C57.6962 19.36 58.2562 19.28 58.7362 19.12C59.2362 18.96 59.7962 18.74 60.4162 18.46C61.0162 18.14 61.4562 17.98 61.7362 17.98ZM56.5462 9.61C55.5262 9.61 54.7062 9.93 54.0862 10.57C53.4862 11.21 53.1262 12.13 53.0062 13.33H59.7862C59.7462 12.11 59.4462 11.19 58.8862 10.57C58.3262 9.93 57.5462 9.61 56.5462 9.61ZM71.2237 22.24C69.7637 22.24 68.4737 21.93 67.3537 21.31C66.2537 20.69 65.4037 19.81 64.8037 18.67C64.2037 17.53 63.9037 16.2 63.9037 14.68C63.9037 13.16 64.2137 11.82 64.8337 10.66C65.4737 9.48 66.3637 8.57 67.5037 7.93C68.6437 7.29 69.9537 6.97 71.4337 6.97C72.2137 6.97 72.9937 7.08 73.7737 7.3C74.5737 7.52 75.2737 7.82 75.8737 8.2C76.5137 8.62 76.8337 9.15 76.8337 9.79C76.8337 10.23 76.7237 10.59 76.5037 10.87C76.3037 11.13 76.0337 11.26 75.6937 11.26C75.4737 11.26 75.2437 11.21 75.0037 11.11C74.7637 11.01 74.5237 10.89 74.2837 10.75C73.8437 10.49 73.4237 10.29 73.0237 10.15C72.6237 9.99 72.1637 9.91 71.6437 9.91C70.4037 9.91 69.4437 10.32 68.7637 11.14C68.1037 11.94 67.7737 13.1 67.7737 14.62C67.7737 16.12 68.1037 17.28 68.7637 18.1C69.4437 18.9 70.4037 19.3 71.6437 19.3C72.1437 19.3 72.5837 19.23 72.9637 19.09C73.3637 18.93 73.8037 18.72 74.2837 18.46C74.5837 18.28 74.8437 18.15 75.0637 18.07C75.2837 17.97 75.5037 17.92 75.7237 17.92C76.0437 17.92 76.3137 18.06 76.5337 18.34C76.7537 18.62 76.8637 18.97 76.8637 19.39C76.8637 19.73 76.7837 20.03 76.6237 20.29C76.4837 20.53 76.2437 20.75 75.9037 20.95C75.2837 21.35 74.5637 21.67 73.7437 21.91C72.9237 22.13 72.0837 22.24 71.2237 22.24ZM85.72 19.39C86.72 19.45 87.22 19.9 87.22 20.74C87.22 21.22 87.02 21.59 86.62 21.85C86.24 22.09 85.69 22.19 84.97 22.15L84.16 22.09C80.8 21.85 79.12 20.05 79.12 16.69V10.15H77.62C77.08 10.15 76.66 10.03 76.36 9.79C76.08 9.55 75.94 9.2 75.94 8.74C75.94 8.28 76.08 7.93 76.36 7.69C76.66 7.45 77.08 7.33 77.62 7.33H79.12V4.57C79.12 4.03 79.29 3.6 79.63 3.28C79.97 2.96 80.43 2.8 81.01 2.8C81.57 2.8 82.02 2.96 82.36 3.28C82.7 3.6 82.87 4.03 82.87 4.57V7.33H85.42C85.96 7.33 86.37 7.45 86.65 7.69C86.95 7.93 87.1 8.28 87.1 8.74C87.1 9.2 86.95 9.55 86.65 9.79C86.37 10.03 85.96 10.15 85.42 10.15H82.87V16.96C82.87 18.44 83.55 19.23 84.91 19.33L85.72 19.39Z" fill="#393939"/>
<path d="M96.7787 22C96.1987 22 95.7487 21.84 95.4287 21.52C95.1087 21.2 94.9487 20.76 94.9487 20.2V2.62C94.9487 2.04 95.1187 1.58 95.4587 1.24C95.8187 0.879999 96.2887 0.699999 96.8687 0.699999C97.4687 0.699999 97.9387 0.879999 98.2787 1.24C98.6387 1.58 98.8187 2.04 98.8187 2.62V18.82H107.249C108.449 18.82 109.049 19.35 109.049 20.41C109.049 21.47 108.449 22 107.249 22H96.7787Z" fill="#CEA12C"/>
<path d="M118.969 22.27C116.069 22.27 113.869 21.52 112.369 20.02C110.869 18.52 110.119 16.33 110.119 13.45V2.62C110.119 2.04 110.289 1.58 110.629 1.24C110.969 0.879999 111.429 0.699999 112.009 0.699999C112.589 0.699999 113.049 0.879999 113.389 1.24C113.729 1.58 113.899 2.04 113.899 2.62V13.66C113.899 15.48 114.329 16.86 115.189 17.8C116.049 18.72 117.309 19.18 118.969 19.18C120.609 19.18 121.859 18.71 122.719 17.77C123.579 16.83 124.009 15.46 124.009 13.66V2.62C124.009 2.04 124.179 1.58 124.519 1.24C124.859 0.879999 125.319 0.699999 125.899 0.699999C126.479 0.699999 126.939 0.879999 127.279 1.24C127.619 1.58 127.789 2.04 127.789 2.62V13.45C127.789 16.31 127.039 18.5 125.539 20.02C124.039 21.52 121.849 22.27 118.969 22.27Z" fill="#E42525"/>
<path d="M132.751 22C132.171 22 131.711 21.84 131.371 21.52C131.051 21.2 130.891 20.75 130.891 20.17V2.68C130.891 2.1 131.051 1.65 131.371 1.33C131.711 1.01 132.171 0.849999 132.751 0.849999H138.691C142.151 0.849999 144.831 1.78 146.731 3.64C148.651 5.48 149.611 8.07 149.611 11.41C149.611 14.77 148.651 17.38 146.731 19.24C144.831 21.08 142.151 22 138.691 22H132.751ZM138.451 18.85C143.311 18.85 145.741 16.37 145.741 11.41C145.741 6.47 143.311 4 138.451 4H134.761V18.85H138.451Z" fill="#00981E"/>
<path d="M161.579 22.27C159.519 22.27 157.729 21.83 156.209 20.95C154.709 20.07 153.549 18.81 152.729 17.17C151.909 15.53 151.499 13.61 151.499 11.41C151.499 9.21 151.899 7.3 152.699 5.68C153.519 4.04 154.689 2.78 156.209 1.9C157.729 1.02 159.519 0.579999 161.579 0.579999C163.639 0.579999 165.419 1.02 166.919 1.9C168.439 2.78 169.599 4.04 170.399 5.68C171.219 7.3 171.629 9.21 171.629 11.41C171.629 13.61 171.219 15.53 170.399 17.17C169.579 18.81 168.409 20.07 166.889 20.95C165.389 21.83 163.619 22.27 161.579 22.27ZM161.579 19.18C163.519 19.18 165.029 18.51 166.109 17.17C167.209 15.83 167.759 13.91 167.759 11.41C167.759 8.91 167.209 7 166.109 5.68C165.029 4.34 163.519 3.67 161.579 3.67C159.619 3.67 158.089 4.34 156.989 5.68C155.909 7 155.369 8.91 155.369 11.41C155.369 13.91 155.909 15.83 156.989 17.17C158.089 18.51 159.619 19.18 161.579 19.18Z" fill="#0A64CD"/>
</svg>
