<svg width="25" height="20" viewBox="0 0 25 20" fill="none" xmlns="http://www.w3.org/2000/svg">
<path fill-rule="evenodd" clip-rule="evenodd" d="M0 1.875C0 0.841016 0.841016 0 1.875 0C2.90898 0 3.75 0.841016 3.75 1.875V5H0.625C0.279687 5 0 4.72031 0 4.375V1.875ZM10 13.75V16.116C10 17.3617 9.14922 18.5156 7.91992 18.7156C6.35352 18.9707 5 17.7684 5 16.25V1.875C5 1.16875 4.75547 0.523828 4.35898 0H17.5C19.568 0 21.25 1.68203 21.25 3.75V13.75H10ZM11.25 16.25V15H24.375C24.7203 15 25 15.2797 25 15.625C25 18.0414 23.0414 20 20.625 20H7.5C9.56797 20 11.25 18.3176 11.25 16.25ZM7.5 3.75H18.75V2.75H7.5V3.75ZM18.75 7.5H7.5V6.5H18.75V7.5ZM7.5 11.25H18.75V10.25H7.5V11.25Z" fill="white"/>
</svg>
