<svg width="19" height="18" viewBox="0 0 19 18" fill="none" xmlns="http://www.w3.org/2000/svg">
<path d="M10.9788 16.7884L10.1188 17.6484C10.0328 17.7351 9.93041 17.8039 9.81765 17.8508C9.7049 17.8977 9.58397 17.9219 9.46184 17.9219C9.3397 17.9219 9.21878 17.8977 9.10602 17.8508C8.99327 17.8039 8.89091 17.7351 8.80484 17.6484L1.27184 10.1194C1.18518 10.0334 1.11641 9.931 1.06948 9.81825C1.02255 9.70549 0.998392 9.58456 0.998392 9.46243C0.998392 9.3403 1.02255 9.21937 1.06948 9.10661C1.11641 8.99386 1.18518 8.8915 1.27184 8.80543L8.80584 1.26943C8.8919 1.18278 8.99426 1.114 9.10702 1.06707C9.21978 1.02014 9.3407 0.995983 9.46284 0.995983C9.58497 0.995983 9.7059 1.02014 9.81865 1.06707C9.93141 1.114 10.0338 1.18278 10.1198 1.26943L10.9798 2.12943C11.0677 2.21744 11.137 2.32216 11.1838 2.43741C11.2305 2.55265 11.2536 2.6761 11.2519 2.80044C11.2501 2.92478 11.2234 3.04751 11.1734 3.16138C11.1235 3.27526 11.0512 3.37796 10.9608 3.46343L6.29184 7.91143L17.4308 7.91143C17.553 7.91117 17.6741 7.93504 17.787 7.98168C17.9 8.02833 18.0026 8.09682 18.089 8.18323C18.1754 8.26964 18.2439 8.37227 18.2906 8.48522C18.3372 8.59817 18.3611 8.71923 18.3608 8.84143V10.0814C18.3611 10.2036 18.3372 10.3247 18.2906 10.4376C18.2439 10.5506 18.1754 10.6532 18.089 10.7396C18.0026 10.826 17.9 10.8945 17.787 10.9412C17.6741 10.9878 17.553 11.0117 17.4308 11.0114L6.29484 11.0114L10.9608 15.4594C11.0512 15.5444 11.1235 15.6467 11.1735 15.7602C11.2235 15.8737 11.2502 15.9961 11.2518 16.1201C11.2535 16.2441 11.2302 16.3672 11.1833 16.482C11.1364 16.5969 11.0669 16.7011 10.9788 16.7884Z" fill="#00981E"/>
</svg>
